<?xml version="1.0" encoding="utf-8"?>
<!-- Generator: Adobe Illustrator 17.0.0, SVG Export Plug-In . SVG Version: 6.00 Build 0)  -->
<svg version="1.2" baseProfile="tiny" xmlns="http://www.w3.org/2000/svg" xmlns:xlink="http://www.w3.org/1999/xlink" x="0px"
	 y="0px" width="1000px" height="1000px" viewBox="0 0 600 600" xml:space="preserve">
<g id="Livello_1">
</g>
<g id="_x3C_Layer_x3E_">
	<g>
		<g>
			<path fill="#C2EFAB" d="M483.215,331.367H77.499c-12.821,0-23.215,13.412-23.215,29.956v0.001
				c0,16.544,10.394,29.956,23.215,29.956h195.945c9.822,0,17.785,10.274,17.785,22.95l0,0c0,12.675-7.963,22.949-17.785,22.949
				H239.19c-25.03,0-45.322,26.184-45.322,58.482l0,0h-71.929c-13.583,0-24.597,14.21-24.597,31.738l0,0
				c0,17.528,11.014,31.738,24.597,31.738h361.275c48.744,0,88.259-50.988,88.259-113.886l0,0
				C571.474,382.355,531.959,331.367,483.215,331.367z"/>
			<ellipse fill="#6077BD" cx="299.428" cy="562.316" rx="281.338" ry="7.222"/>
			<g>
				<path fill="#552E5D" d="M437.015,518.079c0,0-6.49-0.388-13.367-3.778c-6.877-3.39-12.012-3.874-15.789-7.652
					c-3.778-3.777-11.237-9.395-15.016-9.395c0,0,11.043,7.071,12.496,10.413c1.453,3.342,15.353,7.556,17.049,9.251
					c1.695,1.694,9.881,6.296,9.881,6.296L437.015,518.079z"/>
				<path fill="#552E5D" d="M530.831,493.983c0,0,3.633,3.56,3.633,6.902c0,3.341-4.432,7.628-7.847,2.614
					C523.203,498.488,530.831,493.983,530.831,493.983z"/>
				<path fill="#552E5D" d="M446.605,539.777c0,0-4.359,4.844-4.359,6.49c0,1.646,2.494,5.428,5.037,7.361
					c1.761,1.34,2.669,4.747,2.324,4.747c-2.519,0-7.991,0-7.991,0s-1.308-3.681-1.308-5.715c0-2.034-9.105-9.688-9.105-9.688
					l5.618-6.489L446.605,539.777z"/>
				<path fill="#552E5D" d="M511.651,546.368c0,0-2.273,4.838-1.644,5.327c0.63,0.489,2.329,1.6,2.886,3.47
					c0.544,1.821-0.004,2.131-0.004,2.131l-7.476-0.003c-1.668-0.084-2.821-1.329-2.385-2.583c0.856-2.454,2.035-6.069,2.035-7.363
					C505.064,545.314,511.651,546.368,511.651,546.368z"/>
				<path fill="#FD5E5A" d="M325.479,557.677c-8.559-3.403-21.474-9.188-23.033-13.643c-0.084-0.238-1.027-9.268-2.389-22.625
					c-3.908,1.428-9.148-1.491-13.254-1.047c3.219,11.321,6.886,24.008,6.886,24.008l-1.518,10.886
					c-0.246,1.767,1.221,2.536,2.994,2.339c3.883-0.43,10.852-0.674,17.127,0.625C316.69,559.129,326.956,558.264,325.479,557.677z"
					/>
				<path fill="#FD5E5A" d="M300.058,300.757c0,0,9.771,7.314,15.873,7.314c6.103,0,6.9,10.388,6.9,10.388
					s-7.879,10.536-15.236,10.536c-7.357,0-16.947-22.959-16.947-22.959L300.058,300.757z"/>
				<path fill="#E24242" d="M311.429,306.811c0,0-7.268,3.584-6.106,6.346c1.162,2.761,15.236-1.615,15.236-2.77
					S314.014,305.355,311.429,306.811z"/>
				<path fill="#FF9739" d="M227.438,146.987c-10.008,37.653,2.325,78.362,9.989,97.605c6.372,16,30.051,46.349,56.999,69.871
					l13.168-14.303c-15.817-17.354-32.872-37.591-38.701-50.158c-4.945-10.662-0.682-54.354,1.763-75.566
					c1.342-11.64-1.728-24.105-9.052-33.801C249.29,124.329,233.085,125.748,227.438,146.987z"/>
				<g>
					<path fill="#552E5D" d="M479.896,510.232c-105.252,0-134.619-52.876-144.491-163.668c-2.061-22.959-8.603-36.484-29.925-32.458
						c-0.534,0.1-1.05,0.251-1.546,0.444c8.219,6.424,5.544,89.639-3.878,89.639c-1.153,0-1.153-1.811,0-1.811
						c0.167,0,0.78-0.145,1.628-2.009c7.232-15.896,6.753-85.91,0.746-84.493c-7.321,1.926,0.131,33.389,1.653,40.136
						c-0.233,0.008-17.478,0.576-16.378,0.54c0.582-13.99,4.254-41.734,17.461-44.228c22.346-4.21,29.803,9.9,31.973,34.069
						c4.326,48.55,12.637,105.096,50.247,136.843c41.652,35.156,124.83,23.297,125.668,23.174c1.091-0.211,1.425,1.617,0.245,1.792
						C512.962,508.256,499.09,510.232,479.896,510.232z M298.042,319.805c-6.684,10.104-8.232,30.199-8.507,34.862
						c2.519-0.104,9.257-0.375,12.297-0.448C300.624,349.25,296.132,329.582,298.042,319.805z"/>
				</g>
				<path fill="#FC7575" d="M319.902,323.375c0,0-1.695,1.404-2.519,2.228c-0.824,0.823-2.07,0.836-3.487,2.254
					c-1.417,1.418-6.302,1.137-6.302,1.137c2.707-1.26-2.029-14.119,0-14.119s5.283,9.275,5.283,9.275s-4.6-13.562-2.179-14.627
					c2.422-1.065,5.231,9.977,5.231,9.977s-4.65-11.721-2.422-11.721c2.229,0,6.103,9.733,6.103,9.733s-7.588-16.287-2.325-11.023
					c5.264,5.263,6.49,11.023,6.49,11.023C324.358,320.657,319.902,323.375,319.902,323.375z"/>
				<path fill="#603E6B" d="M269.331,213.678c0,0,9.275-25.953,4.044-38.283c0,0,0.707-19.163,2.251-30.928
					c2.471-18.828-8.326-22.36-17.322-23.442c-2.63-0.317-5.193-2.009-8.278-2.068c-12.877-1.45-49.542-5.079-54.616-0.005
					l37.657,14.03c-1.651,7.601-4.374,18.713-8.659,32.767c-8.571,28.121-5.084,41.489-5.084,41.489s-5.997,15.692-9.683,27.316
					c-3.685,11.624-6.776,38.94,0,54.633c6.776,15.692,41.649,12.514,51.529,7.312C271.051,291.297,283.304,220.699,269.331,213.678
					z"/>
				<path fill="#757AD8" d="M288.301,404.269l-31.994-142.121l-50.855,35.3l55.906,118.273c0,0,1.213,4.714,1.213,13.471
					c0,5.128,10.525,64.892,19.438,96.242c4.104-0.444,14.141-2.597,18.049-4.024C296.021,481.847,288.301,404.269,288.301,404.269z
					"/>
				<path fill="#FC7575" d="M123.278,524.836c0,0,0,0-6.062,2.021c-6.062,2.021-3.291,8.007,0.582,11.88
					c2.49,2.49,3.816,11.141,4.382,16.584c0.31,2.982,2.169,5.236,5.167,5.236c0,0,9.288-0.526,9.288-1.021
					c0-2.91-5.104-1.189-7.294-3.378c-2.189-2.189,0-21.891,0-21.891c3.678-6.782,8.359-14.04,13.635-21.579
					c-3.201-2.895-6.44-5.789-9.785-8.684C127.407,516.104,123.278,524.836,123.278,524.836z"/>
				<path fill="#C0B4FE" d="M258.297,270.986l-4.011-16.585c-24.922-24.922-59.61,8.083-68.414,27.616
					c-8.805,19.533,7.213,124.573,7.213,124.573s-17.625,17.995-24.023,25.572c-3.058,3.621-26.953,44.128-39.474,70.327
					c3.345,2.894,10.187,7.303,13.388,10.197c21.684-30.98,53.543-66.747,68.371-94.085L258.297,270.986z"/>
				<path fill="#F9B406" d="M235.831,122.99c-12.246-0.605-4.072-3.913-24.484,0.74c0,0-5.557,89.92-10.609,100.697
					c-5.051,10.777-13.471,10.104-10.104,13.472c3.203,3.201-1.805,3.322-2.307,6.965c-0.629,4.565,6.686,8.75,6.686,10.548
					c0,1.684-1.003,13.813-1.003,13.813s39.487,17.089,69.691,6.857c2.799-66.618-6.477-72.721-4.627-95.775
					C259.865,170.435,263.214,124.342,235.831,122.99z"/>
				<path fill="#542360" d="M121.51,555.32c0.311,2.982,2.839,5.236,5.837,5.236c0,0,9.288-0.526,9.288-1.021
					c0-2.91-5.104-1.189-7.294-3.378c-0.184-0.007-5.404-6.622-6.175-12.237c-0.785-5.725-4.77-17.452-4.771-17.456
					c-0.163,0.054-1.073,0.357-1.18,0.393c-6.062,2.021-3.873,8.588,0,12.461c0.041,0.04,0.08,0.082,0.119,0.124
					C119.979,542.326,121.103,551.459,121.51,555.32z"/>
				<path fill="#542360" d="M325.479,557.677c-2.861-1.138-6.21-2.542-9.459-4.073c-0.039,0.005-9.654,1.092-13.996,0.309
					c-2.973-0.537-7.063-1.598-9.357-2.217l-0.496,3.559c-0.246,1.767,1.221,3.294,2.994,3.099
					c3.883-0.431,10.435-0.801,16.711,0.498C316.274,559.761,326.956,558.264,325.479,557.677z"/>
				<g>
					<path fill="#FC7575" d="M244.938,99.358c0,0-4.604,23.164-2.696,28.956c1.907,5.791-19.6,5.177-20.692-1.491
						c-1.092-6.669,11.694-37.994,11.694-37.994L244.938,99.358z"/>
					<path fill="#FC7575" d="M247.457,53.774c0,0,10.613-0.943,12.265,7.312c1.651,8.256-4.639,15.803-3.066,18.947
						c1.572,3.146,5.071,4.875,6.015,5.288c0.943,0.412-0.825,3.125-2.358,3.715c0,0-0.678,1.503-0.236,1.945
						c0.443,0.442,1.533,1.238,1.18,2.3c-0.353,1.062-2.182,1.593-2.182,1.593s1.799,1.857,0.885,2.771
						c-0.914,0.914-2.831,1.416-2.831,1.416s0.473,4.187-1.532,5.424c-2.006,1.239-8.06-0.393-13.248-2.594
						c-5.189-2.201-18.686-7.548-18.686-7.548S211.056,45.44,247.457,53.774z"/>
					<path fill="#2846A6" d="M242.242,56.958c0.661,0.662,3.21,2.713,3.21,7.784s-0.59,5.66-0.59,5.66h6.369
						c0,0,1.297-6.368,0.707-8.137c0,0,0.825,5.07,0.825,8.137h15.482c0,0,3.151-19.341-11.826-30.19
						c-14.978-10.85-32.432-1.18-32.432-1.18s-11.793-1.179-16.392,7.901c-4.6,9.081-7.312,10.143-13.799,13.327
						c-6.486,3.184-9.095,17.883-8.373,18.604c0.722,0.722-14.624,3.33-18.633,17.365l-0.943,8.682c0,0,20.048,0.163,26.18,2.875
						c6.133,2.712,10.851,1.297,10.851,1.297s2.771-9.965,6.368-13.561c3.597-3.598,7.193-4.718,7.193-4.718
						s-8.255,12.736-8.255,18.162l15.096,0.486c0,0,13.325-7.799,14.859-18.294c1.532-10.496,0-21.229,0-21.229
						s2.83,2.595,2.83,8.02c0,0,1.061-7.312,0.118-13.562C240.145,58.138,242.242,56.958,242.242,56.958z"/>
					<path fill="#2846A6" d="M255.069,92.659c-1.012,1.056,2.371,1.923,4.004,2.215c-1.269-0.113-4.262-0.448-4.57-1.684
						c-0.103-0.45,0.202-1.168,0.546-0.906c0.108,0.082,0.13,0.237,0.048,0.346c-0.006,0.007-0.012,0.015-0.019,0.021
						L255.069,92.659z"/>
					<path fill="#2846A6" d="M255.647,78.818c0,0,0.455,1.569-1.164,2.289L255.647,78.818z"/>
					<path fill="#0F1D5B" d="M251.036,77.952c2.271,0.353,6.396,0.613,8.037-0.996C258.071,79.147,253.499,79.412,251.036,77.952z"
						/>
				</g>
				<path fill="#93278F" d="M195.409,118.951c0,0,1.451,18.677-7.12,46.797c-8.572,28.121-5.085,41.489-5.085,41.489
					s-5.997,15.692-9.683,27.316c-3.684,11.624-6.776,38.94,0,54.633c6.776,15.692,41.65,12.514,51.529,7.312
					c9.88-5.202,22.133-75.8,8.161-82.821c0,0,9.275-25.953,4.045-38.283c0,0,10.64-22.538,2.25-30.928
					c-4.195-4.195-10.025-18.631-17.322-23.442C214.888,116.212,195.409,118.951,195.409,118.951z"/>
				<path fill="#EA5B0C" d="M511.07,489.115c0,0-1.599,22.231-9.153,24.411c-7.557,2.18-66.694,1.89-71.488,5.23
					c-4.795,3.342-12.933,11.625-13.658,17.001c-0.727,5.376-0.727,5.376-0.727,5.376s-7.266-0.338-7.266,1.743
					c0,2.082,4.939,18.018,4.939,18.018l8.422,0.626c0.774,0.058,1.321-0.753,0.961-1.441c-0.858-1.638-2.652-3.979-5.895-3.979
					l-1.309-8.863c0,0,7.411,2.615,11.334,0.727c3.924-1.889,8.718-6.829,13.658-7.556c4.94-0.727,51.291,12.205,59.574,11.479
					c8.281-0.727,19.76-9.009,23.248-12.496c3.486-3.487,3.196-40.829,6.392-42.718c3.197-1.89,10.483-0.901,14.095-2.616
					c2.586-1.227,2.47-4.94,2.47-4.94s2.18-3.341,1.453-5.375c-0.727-2.035-4.214-1.018-4.214-1.018s-10.752,0-12.786-2.034
					c-2.034-2.034-4.214-4.069-9.59-2.616C516.156,479.525,511.07,483.595,511.07,489.115z"/>
				<polygon fill="#FFDA88" points="506.188,506.237 528.216,511.031 527.818,514.229 505.657,508.853 				"/>
				<path fill="#603E6B" d="M506.712,520.791c0-2.248-1.283-5.17-3.218-8.059c-0.495,0.362-1.021,0.633-1.577,0.794
					c-5.955,1.718-43.949,1.901-62.13,3.538c1.101,4.259,3.104,9.159,6.624,10.411c6.539,2.325,10.607-0.145,16.129,5.376
					c5.521,5.521,14.966,6.103,21.795-0.727C491.164,525.296,506.712,527.476,506.712,520.791z"/>
				<path fill="#552E5D" d="M546.567,488.762c0.266,3.01-1.98,3.636-5.032,3.712c-1.956-0.099-4.554,0.668-6.989,1.425
					c-0.365,0.118-0.545-0.435-0.178-0.553C541.339,491.096,546.81,493.767,546.567,488.762z"/>
				<path fill="#552E5D" d="M514.849,483.813c0,0-3.125,0.581-5.449,2.179c-2.324,1.599,3.124,14.095,3.777,14.095
					C513.831,500.086,514.849,483.813,514.849,483.813z"/>
				<path fill="#FF681D" d="M513.54,511.274c0,0,5.812-0.146,5.377-5.812c-0.436-5.666-7.08-11.485-7.08-14.279
					c0-2.794,3.012-7.37,3.012-7.37s-3.327,0-6.022,2.034c-2.696,2.034-2.659,3.887-3.786,5.013
					c-1.126,1.126-3.342,1.743-4.141,5.739C500.1,500.595,508.818,509.967,513.54,511.274z"/>
				<path fill="#FF9739" d="M512.313,491.375c-0.24-2.09,1.663-5.853,2.535-7.562c-1.487,1.909-3.473,5.203-3.425,7.653
					c0.505,3.812,6.845,8.934,7.056,14.677c0.133,2.406-1.4,4.545-4.939,5.132c3.113,0.067,5.77-1.815,5.829-5.116
					C519.59,500.047,512.959,494.449,512.313,491.375z"/>
				<ellipse cx="526.291" cy="483.559" rx="1.344" ry="1.925"/>
				<path fill="#EA5B0C" d="M514.315,537.743c0,0,14.725,4.94,18.114,7.071c3.391,2.132,1.938,11.624-2.325,11.624
					c-4.262,0-2.712-7.132-2.712-7.132l-18.599-3.62L514.315,537.743z"/>
				<path fill="#552E5D" d="M548.278,483.502c-0.727-2.034-4.576-0.779-4.937-0.785c-0.243-0.004-1.951,2.355,0.505,5.273
					c0.596,0.708,1.38,0.919,2.26,1.051c0.078,0.013,0.516,0.123,0.562,0.075C547.542,488.242,548.858,485.125,548.278,483.502z"/>
				<path fill="#FD5E5A" d="M198.651,347.893c-1.707-4.489-6.127-8.062-11.384-16.344l-4.529-14.037l-7.12,6.393l4.178,11.051
					c-0.031,0.001-3.275,23.752-1.236,25.682c2.095,1.982,1.519-4.406,2.072-6.713c0.555-2.307,1.704-6.842,1.673-2.63
					c-0.031,4.213,2.37,18.254,3.903,19.219c2.706,1.703-1.565-14.843-0.517-20.157c0,0,2.984,13.14,3.71,18.589
					c0,0,0.438,4.436,2.451,3.878c2.014-0.558-0.245-5.549-0.363-8.694c-0.119-3.146-2.018-11.643-2.276-12.801
					c-0.259-1.158,1.282,1.388,2.253,5.733c0.97,4.344,2.522,11.296,4.132,10.235c2.393-1.578-6.257-23.76-3.001-21.712
					c1.301,0.818,2.383,2.402,3.422,4.882C197.059,352.947,200.062,351.602,198.651,347.893z"/>
				<path fill="#F9B406" d="M182.513,148.762c-24.922,29.947-30.861,72.067-32.005,92.749
					c-0.951,17.195,14.048,61.108,28.597,93.785c3.281-3.856,8.16-10.413,11.677-13.852c-7.048-22.398-14.005-47.932-14.005-61.786
					c0-11.753,22.25-49.595,33.393-67.81c6.115-9.996,8.574-22.595,6.011-34.473C211.868,137.4,196.57,131.87,182.513,148.762z"/>
				<path fill="#FFC648" d="M214.047,149.769c-1.748-3.691-4.335-7.153-7.923-9.161c11.843,7.642,12.736,30.285,6.434,44.607
					c-2.777,6.562-32.398,51.426-36.271,70.617c-3.19,12.176,10.429,53.757,14.494,65.611
					c-3.107-11.172-15.491-53.948-12.481-65.174c3.652-17.503,32.939-62.732,35.905-70.359
					C217.341,178.232,218.71,159.51,214.047,149.769z"/>
			</g>
		</g>
		<g>
			<path fill="#18287D" d="M388.497,512.947c-9.361-18.722,6.881-38.786,7.045-38.989l0.898,0.741
				c-0.161,0.194-15.924,19.688-6.904,37.73L388.497,512.947z"/>
		</g>
	</g>
</g>
</svg>
