<?xml version="1.0" encoding="utf-8"?>
<!-- Generator: Adobe Illustrator 17.0.0, SVG Export Plug-In . SVG Version: 6.00 Build 0)  -->
<svg version="1.2" baseProfile="tiny" xmlns="http://www.w3.org/2000/svg" xmlns:xlink="http://www.w3.org/1999/xlink" x="0px"
	 y="0px" width="400px" height="400px" viewBox="0 0 600 600" xml:space="preserve">
<g id="Livello_1" display="none">
	<g id="Livello_1_1_" display="inline">
	</g>
	<g id="_x3C_Layer_x3E_" display="inline">
		<g>
			<g>
				<path fill="#C2EFAB" d="M483.215,331.367H77.499c-12.821,0-23.215,13.412-23.215,29.956v0.001
					c0,16.544,10.394,29.956,23.215,29.956h195.945c9.822,0,17.785,10.274,17.785,22.95l0,0c0,12.675-7.963,22.949-17.785,22.949
					H239.19c-25.03,0-45.322,26.184-45.322,58.482l0,0h-71.929c-13.583,0-24.597,14.21-24.597,31.738l0,0
					c0,17.528,11.014,31.738,24.597,31.738h361.275c48.744,0,88.259-50.988,88.259-113.886l0,0
					C571.474,382.355,531.959,331.367,483.215,331.367z"/>
				<ellipse fill="#6077BD" cx="299.428" cy="562.316" rx="281.338" ry="7.222"/>
				<g>
					<path fill="#552E5D" d="M437.015,518.079c0,0-6.49-0.388-13.367-3.778s-12.012-3.874-15.789-7.652
						c-3.778-3.777-11.237-9.395-15.016-9.395c0,0,11.043,7.071,12.496,10.413c1.453,3.342,15.353,7.556,17.049,9.251
						c1.695,1.694,9.881,6.296,9.881,6.296L437.015,518.079z"/>
					<path fill="#552E5D" d="M530.831,493.983c0,0,3.633,3.56,3.633,6.902c0,3.341-4.432,7.628-7.847,2.614
						C523.203,498.488,530.831,493.983,530.831,493.983z"/>
					<path fill="#552E5D" d="M446.605,539.777c0,0-4.359,4.844-4.359,6.49s2.494,5.428,5.037,7.361
						c1.761,1.34,2.669,4.747,2.324,4.747c-2.519,0-7.991,0-7.991,0s-1.308-3.681-1.308-5.715s-9.105-9.688-9.105-9.688l5.618-6.489
						L446.605,539.777z"/>
					<path fill="#552E5D" d="M511.651,546.368c0,0-2.273,4.838-1.644,5.327c0.63,0.489,2.329,1.6,2.886,3.47
						c0.544,1.821-0.004,2.131-0.004,2.131l-7.476-0.003c-1.668-0.084-2.821-1.329-2.385-2.583c0.856-2.454,2.035-6.069,2.035-7.363
						C505.064,545.314,511.651,546.368,511.651,546.368z"/>
					<path fill="#FD5E5A" d="M325.479,557.677c-8.559-3.403-21.474-9.188-23.033-13.643c-0.084-0.238-1.027-9.268-2.389-22.625
						c-3.908,1.428-9.148-1.491-13.254-1.047c3.219,11.321,6.886,24.008,6.886,24.008l-1.518,10.886
						c-0.246,1.767,1.221,2.536,2.994,2.339c3.883-0.43,10.852-0.674,17.127,0.625C316.69,559.129,326.956,558.264,325.479,557.677z
						"/>
					<path fill="#FD5E5A" d="M300.058,300.757c0,0,9.771,7.314,15.873,7.314c6.103,0,6.9,10.388,6.9,10.388
						s-7.879,10.536-15.236,10.536s-16.947-22.959-16.947-22.959L300.058,300.757z"/>
					<path fill="#E24242" d="M311.429,306.811c0,0-7.268,3.584-6.106,6.346c1.162,2.761,15.236-1.615,15.236-2.77
						S314.014,305.355,311.429,306.811z"/>
					<path fill="#FF9739" d="M227.438,146.987c-10.008,37.653,2.325,78.362,9.989,97.605c6.372,16,30.051,46.349,56.999,69.871
						l13.168-14.303c-15.817-17.354-32.872-37.591-38.701-50.158c-4.945-10.662-0.682-54.354,1.763-75.566
						c1.342-11.64-1.728-24.105-9.052-33.801C249.29,124.329,233.085,125.748,227.438,146.987z"/>
					<g>
						<path fill="#552E5D" d="M479.896,510.232c-105.252,0-134.619-52.876-144.491-163.668
							c-2.061-22.959-8.603-36.484-29.925-32.458c-0.534,0.1-1.05,0.251-1.546,0.444c8.219,6.424,5.544,89.639-3.878,89.639
							c-1.153,0-1.153-1.811,0-1.811c0.167,0,0.78-0.145,1.628-2.009c7.232-15.896,6.753-85.91,0.746-84.493
							c-7.321,1.926,0.131,33.389,1.653,40.136c-0.233,0.008-17.478,0.576-16.378,0.54c0.582-13.99,4.254-41.734,17.461-44.228
							c22.346-4.21,29.803,9.9,31.973,34.069c4.326,48.55,12.637,105.096,50.247,136.843
							c41.652,35.156,124.83,23.297,125.668,23.174c1.091-0.211,1.425,1.617,0.245,1.792
							C512.962,508.256,499.09,510.232,479.896,510.232z M298.042,319.805c-6.684,10.104-8.232,30.199-8.507,34.862
							c2.519-0.104,9.257-0.375,12.297-0.448C300.624,349.25,296.132,329.582,298.042,319.805z"/>
					</g>
					<path fill="#FC7575" d="M319.902,323.375c0,0-1.695,1.404-2.519,2.228c-0.824,0.823-2.07,0.836-3.487,2.254
						s-6.302,1.137-6.302,1.137c2.707-1.26-2.029-14.119,0-14.119s5.283,9.275,5.283,9.275s-4.6-13.562-2.179-14.627
						c2.422-1.065,5.231,9.977,5.231,9.977s-4.65-11.721-2.422-11.721c2.229,0,6.103,9.733,6.103,9.733s-7.588-16.287-2.325-11.023
						c5.264,5.263,6.49,11.023,6.49,11.023C324.358,320.657,319.902,323.375,319.902,323.375z"/>
					<path fill="#603E6B" d="M269.331,213.678c0,0,9.275-25.953,4.044-38.283c0,0,0.707-19.163,2.251-30.928
						c2.471-18.828-8.326-22.36-17.322-23.442c-2.63-0.317-5.193-2.009-8.278-2.068c-12.877-1.45-49.542-5.079-54.616-0.005
						l37.657,14.03c-1.651,7.601-4.374,18.713-8.659,32.767c-8.571,28.121-5.084,41.489-5.084,41.489s-5.997,15.692-9.683,27.316
						c-3.685,11.624-6.776,38.94,0,54.633c6.776,15.692,41.649,12.514,51.529,7.312
						C271.051,291.297,283.304,220.699,269.331,213.678z"/>
					<path fill="#757AD8" d="M288.301,404.269l-31.994-142.121l-50.855,35.3l55.906,118.273c0,0,1.213,4.714,1.213,13.471
						c0,5.128,10.525,64.892,19.438,96.242c4.104-0.444,14.141-2.597,18.049-4.024C296.021,481.847,288.301,404.269,288.301,404.269
						z"/>
					<path fill="#FC7575" d="M123.278,524.836c0,0,0,0-6.062,2.021s-3.291,8.007,0.582,11.88c2.49,2.49,3.816,11.141,4.382,16.584
						c0.31,2.982,2.169,5.236,5.167,5.236c0,0,9.288-0.526,9.288-1.021c0-2.91-5.104-1.189-7.294-3.378
						c-2.189-2.189,0-21.891,0-21.891c3.678-6.782,8.359-14.04,13.635-21.579c-3.201-2.895-6.44-5.789-9.785-8.684
						C127.407,516.104,123.278,524.836,123.278,524.836z"/>
					<path fill="#C0B4FE" d="M258.297,270.986l-4.011-16.585c-24.922-24.922-59.61,8.083-68.414,27.616
						c-8.805,19.533,7.213,124.573,7.213,124.573s-17.625,17.995-24.023,25.572c-3.058,3.621-26.953,44.128-39.474,70.327
						c3.345,2.894,10.187,7.303,13.388,10.197c21.684-30.98,53.543-66.747,68.371-94.085L258.297,270.986z"/>
					<path fill="#F9B406" d="M235.831,122.99c-12.246-0.605-4.072-3.913-24.484,0.74c0,0-5.557,89.92-10.609,100.697
						c-5.051,10.777-13.471,10.104-10.104,13.472c3.203,3.201-1.805,3.322-2.307,6.965c-0.629,4.565,6.686,8.75,6.686,10.548
						c0,1.684-1.003,13.813-1.003,13.813s39.487,17.089,69.691,6.857c2.799-66.618-6.477-72.721-4.627-95.775
						C259.865,170.435,263.214,124.342,235.831,122.99z"/>
					<path fill="#542360" d="M121.51,555.32c0.311,2.982,2.839,5.236,5.837,5.236c0,0,9.288-0.526,9.288-1.021
						c0-2.91-5.104-1.189-7.294-3.378c-0.184-0.007-5.404-6.622-6.175-12.237c-0.785-5.725-4.77-17.452-4.771-17.456
						c-0.163,0.054-1.073,0.357-1.18,0.393c-6.062,2.021-3.873,8.588,0,12.461c0.041,0.04,0.08,0.082,0.119,0.124
						C119.979,542.326,121.103,551.459,121.51,555.32z"/>
					<path fill="#542360" d="M325.479,557.677c-2.861-1.138-6.21-2.542-9.459-4.073c-0.039,0.005-9.654,1.092-13.996,0.309
						c-2.973-0.537-7.063-1.598-9.357-2.217l-0.496,3.559c-0.246,1.767,1.221,3.294,2.994,3.099
						c3.883-0.431,10.435-0.801,16.711,0.498C316.274,559.761,326.956,558.264,325.479,557.677z"/>
					<g>
						<path fill="#FC7575" d="M244.938,99.358c0,0-4.604,23.164-2.696,28.956c1.907,5.791-19.6,5.177-20.692-1.491
							c-1.092-6.669,11.694-37.994,11.694-37.994L244.938,99.358z"/>
						<path fill="#FC7575" d="M247.457,53.774c0,0,10.613-0.943,12.265,7.312c1.651,8.256-4.639,15.803-3.066,18.947
							c1.572,3.146,5.071,4.875,6.015,5.288c0.943,0.412-0.825,3.125-2.358,3.715c0,0-0.678,1.503-0.236,1.945
							c0.443,0.442,1.533,1.238,1.18,2.3c-0.353,1.062-2.182,1.593-2.182,1.593s1.799,1.857,0.885,2.771s-2.831,1.416-2.831,1.416
							s0.473,4.187-1.532,5.424c-2.006,1.239-8.06-0.393-13.248-2.594c-5.189-2.201-18.686-7.548-18.686-7.548
							S211.056,45.44,247.457,53.774z"/>
						<path fill="#2846A6" d="M242.242,56.958c0.661,0.662,3.21,2.713,3.21,7.784s-0.59,5.66-0.59,5.66h6.369
							c0,0,1.297-6.368,0.707-8.137c0,0,0.825,5.07,0.825,8.137h15.482c0,0,3.151-19.341-11.826-30.19
							c-14.978-10.85-32.432-1.18-32.432-1.18s-11.793-1.179-16.392,7.901c-4.6,9.081-7.312,10.143-13.799,13.327
							c-6.486,3.184-9.095,17.883-8.373,18.604c0.722,0.722-14.624,3.33-18.633,17.365l-0.943,8.682c0,0,20.048,0.163,26.18,2.875
							c6.133,2.712,10.851,1.297,10.851,1.297s2.771-9.965,6.368-13.561c3.597-3.598,7.193-4.718,7.193-4.718
							s-8.255,12.736-8.255,18.162l15.096,0.486c0,0,13.325-7.799,14.859-18.294c1.532-10.496,0-21.229,0-21.229
							s2.83,2.595,2.83,8.02c0,0,1.061-7.312,0.118-13.562C240.145,58.138,242.242,56.958,242.242,56.958z"/>
						<path fill="#2846A6" d="M255.069,92.659c-1.012,1.056,2.371,1.923,4.004,2.215c-1.269-0.113-4.262-0.448-4.57-1.684
							c-0.103-0.45,0.202-1.168,0.546-0.906c0.108,0.082,0.13,0.237,0.048,0.346c-0.006,0.007-0.012,0.015-0.019,0.021
							L255.069,92.659z"/>
						<path fill="#2846A6" d="M255.647,78.818c0,0,0.455,1.569-1.164,2.289L255.647,78.818z"/>
						<path fill="#0F1D5B" d="M251.036,77.952c2.271,0.353,6.396,0.613,8.037-0.996C258.071,79.147,253.499,79.412,251.036,77.952z"
							/>
					</g>
					<path fill="#93278F" d="M195.409,118.951c0,0,1.451,18.677-7.12,46.797c-8.572,28.121-5.085,41.489-5.085,41.489
						s-5.997,15.692-9.683,27.316c-3.684,11.624-6.776,38.94,0,54.633c6.776,15.692,41.65,12.514,51.529,7.312
						c9.88-5.202,22.133-75.8,8.161-82.821c0,0,9.275-25.953,4.045-38.283c0,0,10.64-22.538,2.25-30.928
						c-4.195-4.195-10.025-18.631-17.322-23.442C214.888,116.212,195.409,118.951,195.409,118.951z"/>
					<path fill="#EA5B0C" d="M511.07,489.115c0,0-1.599,22.231-9.153,24.411c-7.557,2.18-66.694,1.89-71.488,5.23
						c-4.795,3.342-12.933,11.625-13.658,17.001c-0.727,5.376-0.727,5.376-0.727,5.376s-7.266-0.338-7.266,1.743
						c0,2.082,4.939,18.018,4.939,18.018l8.422,0.626c0.774,0.058,1.321-0.753,0.961-1.441c-0.858-1.638-2.652-3.979-5.895-3.979
						l-1.309-8.863c0,0,7.411,2.615,11.334,0.727c3.924-1.889,8.718-6.829,13.658-7.556c4.94-0.727,51.291,12.205,59.574,11.479
						c8.281-0.727,19.76-9.009,23.248-12.496c3.486-3.487,3.196-40.829,6.392-42.718c3.197-1.89,10.483-0.901,14.095-2.616
						c2.586-1.227,2.47-4.94,2.47-4.94s2.18-3.341,1.453-5.375c-0.727-2.035-4.214-1.018-4.214-1.018s-10.752,0-12.786-2.034
						s-4.214-4.069-9.59-2.616C516.156,479.525,511.07,483.595,511.07,489.115z"/>
					<polygon fill="#FFDA88" points="506.188,506.237 528.216,511.031 527.818,514.229 505.657,508.853 					"/>
					<path fill="#603E6B" d="M506.712,520.791c0-2.248-1.283-5.17-3.218-8.059c-0.495,0.362-1.021,0.633-1.577,0.794
						c-5.955,1.718-43.949,1.901-62.13,3.538c1.101,4.259,3.104,9.159,6.624,10.411c6.539,2.325,10.607-0.145,16.129,5.376
						c5.521,5.521,14.966,6.103,21.795-0.727C491.164,525.296,506.712,527.476,506.712,520.791z"/>
					<path fill="#552E5D" d="M546.567,488.762c0.266,3.01-1.98,3.636-5.032,3.712c-1.956-0.099-4.554,0.668-6.989,1.425
						c-0.365,0.118-0.545-0.435-0.178-0.553C541.339,491.096,546.81,493.767,546.567,488.762z"/>
					<path fill="#552E5D" d="M514.849,483.813c0,0-3.125,0.581-5.449,2.179c-2.324,1.599,3.124,14.095,3.777,14.095
						C513.831,500.086,514.849,483.813,514.849,483.813z"/>
					<path fill="#FF681D" d="M513.54,511.274c0,0,5.812-0.146,5.377-5.812c-0.436-5.666-7.08-11.485-7.08-14.279
						s3.012-7.37,3.012-7.37s-3.327,0-6.022,2.034c-2.696,2.034-2.659,3.887-3.786,5.013c-1.126,1.126-3.342,1.743-4.141,5.739
						C500.1,500.595,508.818,509.967,513.54,511.274z"/>
					<path fill="#FF9739" d="M512.313,491.375c-0.24-2.09,1.663-5.853,2.535-7.562c-1.487,1.909-3.473,5.203-3.425,7.653
						c0.505,3.812,6.845,8.934,7.056,14.677c0.133,2.406-1.4,4.545-4.939,5.132c3.113,0.067,5.77-1.815,5.829-5.116
						C519.59,500.047,512.959,494.449,512.313,491.375z"/>
					<ellipse cx="526.291" cy="483.559" rx="1.344" ry="1.925"/>
					<path fill="#EA5B0C" d="M514.315,537.743c0,0,14.725,4.94,18.114,7.071c3.391,2.132,1.938,11.624-2.325,11.624
						c-4.262,0-2.712-7.132-2.712-7.132l-18.599-3.62L514.315,537.743z"/>
					<path fill="#552E5D" d="M548.278,483.502c-0.727-2.034-4.576-0.779-4.937-0.785c-0.243-0.004-1.951,2.355,0.505,5.273
						c0.596,0.708,1.38,0.919,2.26,1.051c0.078,0.013,0.516,0.123,0.562,0.075C547.542,488.242,548.858,485.125,548.278,483.502z"/>
					<path fill="#FD5E5A" d="M198.651,347.893c-1.707-4.489-6.127-8.062-11.384-16.344l-4.529-14.037l-7.12,6.393l4.178,11.051
						c-0.031,0.001-3.275,23.752-1.236,25.682c2.095,1.982,1.519-4.406,2.072-6.713c0.555-2.307,1.704-6.842,1.673-2.63
						c-0.031,4.213,2.37,18.254,3.903,19.219c2.706,1.703-1.565-14.843-0.517-20.157c0,0,2.984,13.14,3.71,18.589
						c0,0,0.438,4.436,2.451,3.878c2.014-0.558-0.245-5.549-0.363-8.694c-0.119-3.146-2.018-11.643-2.276-12.801
						c-0.259-1.158,1.282,1.388,2.253,5.733c0.97,4.344,2.522,11.296,4.132,10.235c2.393-1.578-6.257-23.76-3.001-21.712
						c1.301,0.818,2.383,2.402,3.422,4.882C197.059,352.947,200.062,351.602,198.651,347.893z"/>
					<path fill="#F9B406" d="M182.513,148.762c-24.922,29.947-30.861,72.067-32.005,92.749
						c-0.951,17.195,14.048,61.108,28.597,93.785c3.281-3.856,8.16-10.413,11.677-13.852c-7.048-22.398-14.005-47.932-14.005-61.786
						c0-11.753,22.25-49.595,33.393-67.81c6.115-9.996,8.574-22.595,6.011-34.473C211.868,137.4,196.57,131.87,182.513,148.762z"/>
					<path fill="#FFC648" d="M214.047,149.769c-1.748-3.691-4.335-7.153-7.923-9.161c11.843,7.642,12.736,30.285,6.434,44.607
						c-2.777,6.562-32.398,51.426-36.271,70.617c-3.19,12.176,10.429,53.757,14.494,65.611
						c-3.107-11.172-15.491-53.948-12.481-65.174c3.652-17.503,32.939-62.732,35.905-70.359
						C217.341,178.232,218.71,159.51,214.047,149.769z"/>
				</g>
			</g>
			<g>
				<path fill="#18287D" d="M388.497,512.947c-9.361-18.722,6.881-38.786,7.045-38.989l0.898,0.741
					c-0.161,0.194-15.924,19.688-6.904,37.73L388.497,512.947z"/>
			</g>
		</g>
	</g>
</g>
<g id="_x3C_Layer_x3E__1_">
	<g>
		<g>
			<path fill="#EDABD1" d="M460.747,192.293H77.935c-12.099,0-21.906,12.655-21.906,28.266l0,0c0,15.61,9.808,28.266,21.906,28.266
				h184.884c9.269,0,16.781,9.695,16.781,21.654l0,0c0,11.96-7.513,21.654-16.781,21.654h-32.32
				c-23.617,0-42.763,24.705-42.763,55.181l0,0h-67.869c-12.817,0-23.208,13.407-23.208,29.946l0,0
				c0,16.539,10.391,29.946,23.208,29.946h340.881c45.993,0,83.278-48.109,83.278-107.456v-0.001
				C544.025,240.403,506.74,192.293,460.747,192.293z"/>
			<path fill="#FD5E5A" d="M345.59,219.58c7.262,3.363,46.658,11.273,65.376,11.392c-0.009,0.027,18.952,10.239,21.206,9.108
				c2.315-1.161-3.234-2.675-5.001-3.87c-1.768-1.195-5.225-3.597-1.692-2.249c3.531,1.348,16.079,3.709,17.365,2.706
				c2.271-1.769-12.963-3.323-17.105-5.884c0,0,11.971,1.582,16.776,2.674c0,0,3.864,1.019,4.019-0.87
				c0.155-1.89-4.74-1.532-7.421-2.418c-2.682-0.885-10.412-1.934-11.466-2.078c-1.055-0.144,1.563-0.655,5.517-0.119
				c3.953,0.537,10.278,1.396,9.885-0.307c-0.393-1.703-10.134-2.071-14.526-2.668c-4.393-0.597-5.746-0.737-4.655-1.587
				c1.091-0.852,2.757-1.275,5.164-1.383c2.407-0.107,2.208-3.087-1.349-3.049c-3.556,0.038-9.783,2.596-12.346,3.381
				c-0.415,0.127-5.257,1.301-5.654,1.328c-0.436-0.01-0.99-0.049-1.648-0.118l0,0l0,0c-9.396-0.987-40.006-8.034-50.154-20.413
				c-11.488-14.011-36.35-68.884-46.691-68.884c-6.457,0-20.235,1.735-19.987,1.685c0,0,14.05,8.464,18.621,21.69
				C316.293,176.369,336.915,215.562,345.59,219.58z"/>
			<ellipse fill="#6077BD" cx="296.66" cy="570.951" rx="158.921" ry="4.954"/>
			<path fill="#FC7575" d="M295.41,87.984c0,0,0.273,17.812-2.997,23.853c-3.27,6.04-12.673,21.993-12.673,21.993
				s11.811,31.385,17.664,44.704c5.854,13.32-0.869,43.724-7.285,51.017c-6.416,7.292-27.82,21.993-33.816,47.395
				c-5.995,25.402-26.162,123.29-26.162,123.29s-5.178,0.31-10.901,6.815c-5.723,6.505-39.244,115.235-39.244,115.235l-7.358,1.858
				c0,0,1.636,5.267,1.636,10.843c0,5.575-5.178,14.56-3.543,18.896c1.636,4.338,7.086,10.843,7.086,10.843
				s-0.954-15.644,2.18-19.206c3.135-3.562,5.179-21.684,5.179-21.684s62.544-107.337,63.499-108.421
				c0.953-1.084,53.754-106.727,65.2-157.53c11.446-50.803,13.154-66.298,13.154-66.298s7.402-10.27,7.402-18.014
				c0-7.744-18.716-25.183-25.801-38.812c-7.086-13.63,5.995-40.58,5.995-40.58L295.41,87.984z"/>
			<path fill="#FD5E5A" d="M296.16,104.598c2.799,6.52,6.67,11.598,10.653,15.258c1.444-12.56,7.81-25.676,7.81-25.676
				l-19.214-6.195c0,0,0.103,6.696-0.571,13.271C295.252,102.393,295.693,103.509,296.16,104.598z"/>
			<path fill="#FD5E5A" d="M319.802,258.669c2.275-10.095,4.069-18.773,5.495-26.235c-9.509-6.766-19.086-13.333-28.974-19.493
				c-1.462,7.442-3.704,13.769-6.204,16.61c-0.253,0.287-0.529,0.587-0.826,0.897c-0.002-0.001-0.002-0.001-0.002-0.001
				c-6.535,6.823-22.334,18.521-30.109,37.549c-4.557,11.137-21.104,95.026-29.041,132.239c-0.628,0.393-8.475,1.185-12.388,9.395
				c-7.147,14.989-28.554,83.17-33.529,99.069l0,0c-2.6,8.304-4.229,13.586-4.229,13.586l-7.358,1.858c0,0,1.636,5.267,1.636,10.842
				c0,5.576-5.178,14.56-3.543,18.896c1.636,4.338,7.086,10.843,7.086,10.843s-0.954-15.644,2.18-19.206
				c3.135-3.562,5.179-21.684,5.179-21.684c0.203-0.349,62.18-106.566,63.553-108.497
				C262.032,394.54,310.422,300.301,319.802,258.669z"/>
			<path fill="#FC7575" d="M370.22,547.688c-8.713-37.29-27.042-115.747-35.393-150.966
				c-10.681-45.048-20.599-101.147-29.88-131.315c-2.777-9.025-6.545-29.893-18.406-32.269
				c-4.665-0.936-26.148,26.151-29.952,38.874c-5.928,19.824,21.329,75.066,29.854,93.771
				c14.611,32.086,59.115,129.609,70.623,161.128h0.001c2.098,5.746,3.141,9.389,2.798,10.246
				c-2.725,6.814-2.725,10.531,1.907,10.531c4.634,0,4.906,8.674,6.814,13.32c1.908,4.646,12.537,3.718,12.537,3.718
				C375.397,561.628,370.22,547.688,370.22,547.688z"/>
			<path fill="#C0B4FE" d="M356.717,541.032c0,0-1.965,0.347-2.031,4.837c-0.066,4.49,5.603,25.082,5.603,25.082l1.545-0.189
				c0,0-2.271-19.032,1.602-17.057c3.872,1.975,6.647,13.162,6.647,13.162s5.918,3.837,15.552,4.022
				c9.634,0.185-4.707-7.544-4.707-7.544l-9.51-2.04c0,0-4.915-12.909-8.421-17.029
				C359.492,540.156,356.717,541.032,356.717,541.032z"/>
			<path fill="#F9CA62" d="M293.624,165.238c2.573-8.125,3.368-16.342-1.19-23.205c-2.207-3.49-5.021-5.652-8.718-4.755
				c-3.55,0.788-6.608,3.834-9.153,6.155c6.316-7.93,13.154-10.893,18.8-2.172c3.068,4.677,4.174,10.865,2.337,18.208
				C295.146,161.465,294.462,163.398,293.624,165.238z"/>
			<path fill="#C0B4FE" d="M173.921,523.821c0,0-1.625-1.302-4.418,1.872c-2.793,3.176-11.31,22.459-11.31,22.459l1.227,1.084
				c0,0,10.006-15.477,11.582-10.996c1.576,4.48-3.271,14.714-3.271,14.714s1.908,7.435,8.722,15.179
				c6.812,7.744,1.229-9.143,1.229-9.143l-5.59-8.978c0,0,4.361-13.166,4.361-18.897
				C176.453,525.385,173.921,523.821,173.921,523.821z"/>
			<g>
				<path fill="#FC7575" d="M318.635,49.637c0,0,10.614-0.955,12.266,7.404c1.65,8.359-4.639,16.002-3.066,19.188
					c1.572,3.184,5.071,4.936,6.015,5.354c0.943,0.418-0.825,3.164-2.358,3.761c0,0-0.678,1.523-0.236,1.972
					c0.442,0.447,1.533,1.254,1.18,2.328c-0.353,1.074-2.182,1.612-2.182,1.612s1.799,1.881,0.885,2.807
					c-0.914,0.925-2.831,1.433-2.831,1.433s0.472,4.239-1.533,5.493c-2.005,1.254-8.059-0.398-13.248-2.627
					c-5.189-2.229-18.686-7.644-18.686-7.644S282.234,41.198,318.635,49.637z"/>
				<path fill="#2846A6" d="M313.42,52.861c0.662,0.67,3.21,2.746,3.21,7.882c0,5.135-0.589,5.732-0.589,5.732h6.368
					c0,0,1.298-6.449,0.707-8.24c0,0,0.826,5.135,0.826,8.24h15.481c0,0,3.151-19.585-11.825-30.571
					c-14.978-10.987-32.432-1.194-32.432-1.194s-11.794-1.194-16.393,8c-4.6,9.196-7.312,10.271-13.798,13.495
					c-6.486,3.225-9.096,18.108-8.373,18.84c0.722,0.73-14.624,3.372-18.634,17.583l-0.943,8.792c0,0,20.049,0.165,26.181,2.911
					c6.133,2.747,10.85,1.313,10.85,1.313s2.771-10.091,6.369-13.733c3.597-3.642,7.193-4.776,7.193-4.776
					s-8.255,12.897-8.255,18.391l15.095,0.493c0,0,13.326-7.897,14.859-18.525c1.533-10.629,0-21.495,0-21.495s2.83,2.627,2.83,8.12
					c0,0,1.062-7.404,0.119-13.733C311.324,54.055,313.42,52.861,313.42,52.861z"/>
				<path fill="#2846A6" d="M326.248,89.013c-1.012,1.068,2.37,1.947,4.004,2.242c-1.27-0.114-4.262-0.453-4.57-1.705
					c-0.104-0.455,0.201-1.183,0.546-0.917c0.108,0.083,0.13,0.24,0.047,0.35c-0.006,0.008-0.012,0.015-0.018,0.021L326.248,89.013z
					"/>
				<path fill="#2846A6" d="M326.826,74.996c0,0,0.455,1.591-1.165,2.319L326.826,74.996z"/>
				<path fill="#0F1D5B" d="M322.215,74.12c2.271,0.357,6.396,0.621,8.037-1.009C329.25,75.33,324.678,75.599,322.215,74.12z"/>
			</g>
			<path fill="#FCEE21" d="M318.886,262.455c0.332-1.292,0.639-2.557,0.916-3.786c11.446-50.803,10.901-66.292,10.901-66.292
				s7.631-12.7,7.631-20.444c0-7.132-19.172-21.091-27.74-33.899c-9.202-2.295-17.384-8.762-26.24-12.081
				c-2.539,4.358-4.613,7.878-4.613,7.878s9.822,31.598,15.676,44.918c5.855,13.32-5.22,38.997-11.636,46.289
				c-0.251,0.286-134.735,169.106-146.041,231.1c0,0,56.887,44.729,90.21,30.604c33.324-14.124,29.887,7.031,41.291,11.756
				c11.406,4.724,80.764-0.377,95.875-15.679L318.886,262.455z"/>
			<g>
				<path fill="#FFFFFF" d="M282.681,136.395c0.885-1.311,0.539-3.091-0.772-3.976c-0.336-0.228-0.703-0.373-1.078-0.443
					c-0.174,0.296-0.329,0.562-0.465,0.793c0.37,0.01,0.744,0.122,1.074,0.345c0.928,0.626,1.172,1.885,0.546,2.811
					c-0.317,0.471-0.798,0.766-1.315,0.86c0.08,0.253,0.165,0.521,0.255,0.803C281.617,137.436,282.253,137.029,282.681,136.395z"/>
				<path fill="#FFFFFF" d="M296.495,145.671c0.885-1.311,0.539-3.092-0.772-3.977c-1.311-0.885-3.092-0.539-3.977,0.771
					c-0.885,1.311-0.539,3.092,0.772,3.977C293.83,147.327,295.61,146.981,296.495,145.671z M292.987,145.747
					c-0.927-0.626-1.171-1.884-0.546-2.812c0.626-0.928,1.885-1.172,2.812-0.546c0.927,0.626,1.172,1.885,0.546,2.812
					C295.174,146.129,293.915,146.373,292.987,145.747z"/>
				<path fill="#FFFFFF" d="M306.333,155.718c1.31,0.885,3.091,0.539,3.976-0.773c0.885-1.311,0.539-3.092-0.771-3.977
					c-1.312-0.885-3.092-0.539-3.977,0.772C304.676,153.053,305.022,154.833,306.333,155.718z M306.256,152.211
					c0.625-0.928,1.884-1.172,2.812-0.547c0.928,0.626,1.171,1.885,0.546,2.812c-0.625,0.927-1.885,1.172-2.812,0.546
					C305.875,154.396,305.631,153.138,306.256,152.211z"/>
				<path fill="#FFFFFF" d="M320.147,164.993c1.311,0.885,3.092,0.539,3.976-0.772c0.885-1.312,0.539-3.092-0.772-3.977
					c-1.312-0.885-3.091-0.539-3.976,0.773C318.489,162.328,318.835,164.108,320.147,164.993z M320.069,161.485
					c0.626-0.927,1.885-1.171,2.812-0.546c0.927,0.626,1.171,1.885,0.545,2.812c-0.625,0.928-1.884,1.172-2.811,0.546
					C319.689,163.672,319.443,162.412,320.069,161.485z"/>
				<path fill="#FFFFFF" d="M337.165,169.52c-1.312-0.885-3.092-0.539-3.977,0.771c-0.885,1.311-0.539,3.092,0.772,3.977
					c1.311,0.885,3.091,0.539,3.976-0.772c0.168-0.249,0.292-0.516,0.373-0.789c0.016-0.263,0.024-0.521,0.024-0.773
					c0-0.392-0.059-0.805-0.169-1.236C337.953,170.234,337.616,169.824,337.165,169.52z M337.241,173.026
					c-0.625,0.927-1.885,1.172-2.812,0.546c-0.928-0.626-1.172-1.885-0.546-2.812c0.626-0.928,1.884-1.172,2.812-0.546
					C337.623,170.841,337.867,172.1,337.241,173.026z"/>
				<path fill="#FFFFFF" d="M299.568,170.861c0.885-1.311,0.539-3.091-0.771-3.976c-1.312-0.885-3.092-0.539-3.977,0.773
					c-0.885,1.311-0.539,3.091,0.772,3.976C296.904,172.519,298.684,172.173,299.568,170.861z M295.516,168.127
					c0.625-0.928,1.885-1.172,2.812-0.547c0.927,0.626,1.171,1.885,0.545,2.812c-0.625,0.928-1.884,1.172-2.811,0.546
					C295.135,170.312,294.891,169.054,295.516,168.127z"/>
				<path fill="#FFFFFF" d="M308.635,176.933c-0.885,1.311-0.539,3.091,0.771,3.976c1.312,0.885,3.092,0.539,3.977-0.771
					c0.885-1.311,0.539-3.092-0.773-3.977C311.299,175.275,309.52,175.621,308.635,176.933z M312.142,176.855
					c0.927,0.626,1.172,1.885,0.546,2.812c-0.626,0.928-1.885,1.172-2.812,0.546c-0.927-0.625-1.171-1.884-0.546-2.811
					C309.955,176.475,311.215,176.23,312.142,176.855z"/>
				<path fill="#FFFFFF" d="M322.448,186.207c-0.885,1.312-0.539,3.092,0.772,3.977c1.31,0.885,3.092,0.539,3.977-0.772
					c0.885-1.311,0.539-3.091-0.772-3.976C325.113,184.551,323.333,184.896,322.448,186.207z M325.955,186.131
					c0.928,0.625,1.172,1.885,0.547,2.811c-0.626,0.927-1.886,1.171-2.812,0.546c-0.927-0.625-1.172-1.884-0.546-2.811
					C323.77,185.749,325.028,185.505,325.955,186.131z"/>
				<path fill="#FFFFFF" d="M297.895,192.849c-0.885,1.312-0.539,3.091,0.771,3.976c1.312,0.885,3.092,0.539,3.977-0.771
					c0.885-1.312,0.539-3.092-0.773-3.977C300.559,191.191,298.779,191.537,297.895,192.849z M301.401,192.771
					c0.927,0.626,1.172,1.885,0.546,2.812c-0.625,0.927-1.885,1.172-2.811,0.546c-0.928-0.626-1.172-1.885-0.546-2.812
					C299.216,192.391,300.475,192.145,301.401,192.771z"/>
				<path fill="#FFFFFF" d="M311.708,202.123c-0.885,1.312-0.539,3.092,0.772,3.977c1.311,0.885,3.092,0.539,3.977-0.771
					c0.885-1.311,0.539-3.092-0.772-3.977C314.374,200.467,312.593,200.812,311.708,202.123z M315.216,202.047
					c0.927,0.625,1.171,1.885,0.546,2.811c-0.626,0.928-1.885,1.172-2.811,0.546c-0.928-0.626-1.172-1.885-0.546-2.811
					C313.029,201.666,314.288,201.421,315.216,202.047z"/>
				<path fill="#FFFFFF" d="M325.522,211.398c-0.885,1.311-0.539,3.092,0.772,3.977c0.584,0.395,1.262,0.543,1.911,0.473
					c0.046-0.294,0.091-0.585,0.136-0.872c-0.525,0.118-1.097,0.028-1.578-0.296c-0.928-0.626-1.172-1.885-0.547-2.812
					c0.598-0.885,1.771-1.147,2.683-0.627c0.042-0.296,0.083-0.586,0.123-0.874C327.784,209.836,326.304,210.24,325.522,211.398z"/>
				<path fill="#FFFFFF" d="M291.903,211.969c0.493-0.733,0.604-1.612,0.376-2.4c-0.447,1.137-0.912,2.245-1.388,3.316
					C291.285,212.673,291.635,212.365,291.903,211.969z"/>
				<path fill="#FFFFFF" d="M300.968,218.039c-0.885,1.312-0.539,3.092,0.772,3.977c1.311,0.885,3.092,0.539,3.977-0.771
					c0.885-1.311,0.539-3.092-0.772-3.977C303.634,216.383,301.853,216.729,300.968,218.039z M304.476,217.963
					c0.927,0.626,1.171,1.885,0.546,2.811c-0.626,0.927-1.885,1.172-2.812,0.546c-0.928-0.626-1.172-1.885-0.546-2.811
					C302.289,217.581,303.548,217.337,304.476,217.963z"/>
				<path fill="#FFFFFF" d="M314.782,227.314c-0.885,1.312-0.539,3.092,0.772,3.977c1.311,0.885,3.091,0.539,3.976-0.772
					c0.885-1.312,0.539-3.092-0.772-3.977C317.447,225.657,315.667,226.003,314.782,227.314z M318.289,227.237
					c0.928,0.626,1.172,1.886,0.546,2.812c-0.626,0.927-1.884,1.172-2.811,0.546c-0.928-0.626-1.172-1.885-0.546-2.812
					C316.103,226.856,317.362,226.612,318.289,227.237z"/>
				<path fill="#FFFFFF" d="M291,237.932c1.311,0.885,3.092,0.539,3.977-0.772c0.885-1.311,0.539-3.091-0.771-3.976
					c-1.312-0.885-3.092-0.539-3.978,0.771C289.344,235.267,289.689,237.047,291,237.932z M290.924,234.425
					c0.625-0.928,1.885-1.171,2.811-0.546c0.927,0.625,1.172,1.884,0.546,2.811c-0.626,0.927-1.885,1.171-2.811,0.546
					C290.542,236.611,290.298,235.352,290.924,234.425z"/>
				<path fill="#FFFFFF" d="M308.018,242.459c-1.311-0.885-3.092-0.539-3.977,0.771c-0.885,1.311-0.539,3.092,0.772,3.977
					c1.311,0.885,3.091,0.539,3.976-0.772C309.675,245.123,309.329,243.344,308.018,242.459z M308.096,245.965
					c-0.626,0.928-1.885,1.172-2.812,0.547c-0.928-0.626-1.172-1.885-0.546-2.812c0.626-0.927,1.885-1.172,2.811-0.546
					C308.477,243.779,308.721,245.038,308.096,245.965z"/>
				<path fill="#FFFFFF" d="M317.855,252.505c-0.885,1.312-0.539,3.092,0.772,3.977c0.479,0.323,1.019,0.481,1.555,0.489
					c0.064-0.281,0.126-0.564,0.189-0.844c-0.436,0.031-0.884-0.078-1.273-0.341c-0.928-0.626-1.172-1.884-0.546-2.812
					c0.591-0.876,1.747-1.143,2.655-0.641c0.062-0.282,0.123-0.564,0.185-0.845C320.146,250.936,318.646,251.336,317.855,252.505z"
					/>
				<path fill="#FFFFFF" d="M270.423,243.801c0.455-0.676,0.584-1.475,0.423-2.212c-0.272,0.352-0.546,0.709-0.825,1.07
					c-0.055,0.234-0.151,0.462-0.294,0.673c-0.191,0.284-0.443,0.505-0.729,0.655c-0.271,0.354-0.546,0.711-0.824,1.073
					C269.049,245.02,269.896,244.582,270.423,243.801z"/>
				<path fill="#FFFFFF" d="M280.26,253.848c1.312,0.885,3.092,0.539,3.977-0.771c0.885-1.312,0.539-3.092-0.771-3.977
					c-1.312-0.885-3.092-0.539-3.977,0.771C278.603,251.183,278.949,252.963,280.26,253.848z M280.184,250.341
					c0.626-0.927,1.885-1.172,2.811-0.546c0.928,0.625,1.172,1.885,0.546,2.811c-0.626,0.927-1.885,1.171-2.811,0.546
					C279.803,252.526,279.558,251.268,280.184,250.341z"/>
				<path fill="#FFFFFF" d="M293.303,259.147c-0.886,1.31-0.539,3.092,0.771,3.976c1.311,0.885,3.091,0.539,3.977-0.772
					c0.885-1.311,0.539-3.092-0.773-3.977C295.967,257.489,294.188,257.835,293.303,259.147z M296.809,259.07
					c0.928,0.625,1.172,1.884,0.547,2.811c-0.626,0.928-1.885,1.172-2.812,0.547c-0.928-0.626-1.172-1.885-0.546-2.811
					C294.623,258.689,295.882,258.444,296.809,259.07z"/>
				<path fill="#FFFFFF" d="M311.092,267.649c-1.311-0.885-3.091-0.539-3.977,0.772c-0.885,1.31-0.539,3.091,0.772,3.976
					c1.311,0.885,3.092,0.539,3.978-0.772C312.749,270.315,312.404,268.534,311.092,267.649z M311.169,271.156
					c-0.626,0.928-1.884,1.172-2.812,0.547c-0.928-0.626-1.172-1.886-0.546-2.812c0.626-0.928,1.885-1.172,2.811-0.546
					C311.55,268.971,311.795,270.228,311.169,271.156z"/>
				<path fill="#FFFFFF" d="M320.93,277.696c-0.885,1.312-0.539,3.092,0.772,3.977c0.406,0.274,0.858,0.431,1.315,0.475l-0.185-0.88
					c-0.229-0.055-0.453-0.151-0.66-0.291c-0.928-0.626-1.172-1.885-0.547-2.812c0.129-0.19,0.283-0.351,0.455-0.48l-0.184-0.881
					C321.521,277.016,321.188,277.315,320.93,277.696z"/>
				<path fill="#FFFFFF" d="M259.683,259.717c0.714-1.058,0.626-2.42-0.122-3.371c-0.176,0.232-0.353,0.467-0.531,0.701
					c0.407,0.657,0.418,1.518-0.043,2.2c-0.502,0.746-1.416,1.05-2.236,0.814c-0.176,0.233-0.353,0.468-0.53,0.703
					C257.45,261.272,258.909,260.863,259.683,259.717z"/>
				<path fill="#FFFFFF" d="M269.521,269.764c1.311,0.885,3.091,0.539,3.976-0.772c0.886-1.311,0.539-3.091-0.771-3.976
					c-1.312-0.885-3.092-0.54-3.977,0.772C267.863,267.099,268.209,268.879,269.521,269.764z M269.443,266.257
					c0.626-0.928,1.885-1.172,2.812-0.546c0.927,0.626,1.171,1.885,0.545,2.812c-0.625,0.927-1.885,1.172-2.812,0.546
					C269.062,268.442,268.817,267.184,269.443,266.257z"/>
				<path fill="#FFFFFF" d="M282.562,275.062c-0.885,1.311-0.539,3.092,0.772,3.977c1.31,0.885,3.092,0.539,3.976-0.772
					c0.885-1.311,0.539-3.092-0.772-3.977C285.228,273.405,283.447,273.751,282.562,275.062z M286.068,274.985
					c0.928,0.626,1.172,1.885,0.547,2.812c-0.626,0.927-1.885,1.171-2.811,0.546c-0.928-0.626-1.172-1.885-0.546-2.812
					C283.883,274.604,285.142,274.359,286.068,274.985z"/>
				<path fill="#FFFFFF" d="M300.353,283.565c-1.312-0.885-3.092-0.539-3.977,0.772c-0.885,1.311-0.539,3.092,0.771,3.977
					c1.312,0.885,3.093,0.539,3.978-0.773C302.01,286.23,301.664,284.45,300.353,283.565z M300.429,287.072
					c-0.626,0.928-1.884,1.172-2.812,0.546c-0.927-0.626-1.172-1.885-0.546-2.812c0.626-0.927,1.885-1.172,2.812-0.546
					C300.81,284.887,301.055,286.145,300.429,287.072z"/>
				<path fill="#FFFFFF" d="M310.189,293.612c-0.884,1.311-0.538,3.092,0.773,3.977c1.311,0.885,3.092,0.539,3.977-0.772
					c0.885-1.311,0.539-3.092-0.773-3.977C312.855,291.955,311.075,292.301,310.189,293.612z M313.697,293.536
					c0.928,0.626,1.172,1.884,0.546,2.812c-0.626,0.927-1.885,1.172-2.811,0.546c-0.928-0.626-1.172-1.885-0.546-2.812
					C311.511,293.154,312.77,292.91,313.697,293.536z"/>
				<path fill="#FFFFFF" d="M324.004,302.888c-0.885,1.311-0.539,3.091,0.771,3.976c1.066,0.72,2.444,0.625,3.397-0.141
					l-0.206-0.979c-0.65,0.825-1.837,1.021-2.722,0.425c-0.928-0.626-1.171-1.886-0.546-2.812c0.585-0.867,1.726-1.137,2.63-0.655
					l-0.205-0.978C325.975,301.414,324.707,301.846,324.004,302.888z"/>
				<path fill="#FFFFFF" d="M248.942,275.633c0.885-1.312,0.539-3.092-0.772-3.977c-0.025-0.017-0.051-0.033-0.077-0.05
					c-0.167,0.225-0.335,0.45-0.504,0.675c0.038,0.022,0.076,0.046,0.112,0.07c0.928,0.626,1.172,1.885,0.546,2.811
					c-0.625,0.927-1.884,1.172-2.812,0.546c-0.089-0.06-0.171-0.125-0.247-0.195c-0.167,0.225-0.333,0.45-0.501,0.676
					c0.088,0.076,0.18,0.148,0.279,0.215C246.277,277.289,248.058,276.943,248.942,275.633z"/>
				<path fill="#FFFFFF" d="M258.78,285.68c1.311,0.885,3.092,0.539,3.977-0.772c0.885-1.311,0.539-3.091-0.772-3.976
					c-1.312-0.885-3.092-0.539-3.977,0.771C257.123,283.015,257.469,284.795,258.78,285.68z M258.703,282.173
					c0.626-0.928,1.885-1.172,2.812-0.546c0.927,0.625,1.171,1.884,0.545,2.811c-0.625,0.927-1.884,1.172-2.811,0.546
					C258.322,284.359,258.077,283.1,258.703,282.173z"/>
				<path fill="#FFFFFF" d="M271.822,290.978c-0.885,1.311-0.539,3.092,0.771,3.977c1.312,0.885,3.092,0.539,3.977-0.773
					c0.885-1.311,0.539-3.091-0.772-3.976C274.487,289.322,272.707,289.668,271.822,290.978z M275.329,290.901
					c0.927,0.626,1.171,1.885,0.546,2.811c-0.625,0.928-1.885,1.172-2.811,0.547c-0.927-0.626-1.172-1.885-0.546-2.812
					C273.143,290.521,274.401,290.275,275.329,290.901z"/>
				<path fill="#FFFFFF" d="M285.636,300.253c-0.885,1.312-0.539,3.092,0.772,3.977s3.092,0.539,3.977-0.772
					c0.885-1.31,0.539-3.091-0.772-3.976C288.301,298.596,286.521,298.942,285.636,300.253z M289.143,300.177
					c0.927,0.626,1.171,1.885,0.545,2.812c-0.626,0.927-1.884,1.172-2.812,0.546c-0.927-0.626-1.172-1.884-0.546-2.812
					C286.957,299.795,288.216,299.551,289.143,300.177z"/>
				<path fill="#FFFFFF" d="M299.45,309.528c-0.885,1.312-0.539,3.092,0.772,3.977c1.311,0.885,3.092,0.539,3.977-0.773
					c0.885-1.311,0.539-3.092-0.772-3.977C302.115,307.871,300.335,308.217,299.45,309.528z M303.503,312.264
					c-0.626,0.927-1.885,1.171-2.811,0.546c-0.928-0.626-1.172-1.885-0.546-2.812c0.626-0.928,1.884-1.172,2.811-0.547
					C303.885,310.077,304.129,311.336,303.503,312.264z"/>
				<path fill="#FFFFFF" d="M313.264,318.803c-0.885,1.312-0.539,3.093,0.771,3.978c1.312,0.885,3.093,0.539,3.978-0.772
					c0.885-1.312,0.539-3.092-0.772-3.977C315.929,317.147,314.148,317.492,313.264,318.803z M317.316,321.538
					c-0.625,0.928-1.884,1.172-2.811,0.546c-0.928-0.625-1.172-1.885-0.547-2.812c0.626-0.927,1.885-1.172,2.811-0.546
					C317.698,319.353,317.942,320.611,317.316,321.538z"/>
				<path fill="#FFFFFF" d="M327.85,332.055c1.311,0.885,3.092,0.539,3.977-0.772c0.885-1.31,0.539-3.091-0.772-3.976
					c-1.312-0.885-3.092-0.54-3.978,0.771C326.192,329.39,326.538,331.17,327.85,332.055z M327.773,328.548
					c0.625-0.928,1.885-1.172,2.811-0.546c0.927,0.626,1.172,1.885,0.546,2.811c-0.626,0.927-1.885,1.172-2.811,0.546
					C327.392,330.733,327.147,329.475,327.773,328.548z"/>
				<path fill="#FFFFFF" d="M234.227,292.32c1.311,0.885,3.091,0.539,3.976-0.772c0.885-1.311,0.539-3.092-0.772-3.977
					c-0.264-0.178-0.546-0.306-0.836-0.386c-0.182,0.249-0.364,0.497-0.547,0.747c0.318,0.033,0.632,0.143,0.914,0.334
					c0.928,0.625,1.172,1.885,0.546,2.812c-0.625,0.927-1.884,1.172-2.812,0.546c-0.326-0.222-0.567-0.521-0.717-0.855
					c-0.182,0.249-0.363,0.499-0.545,0.749C233.637,291.827,233.901,292.102,234.227,292.32z"/>
				<path fill="#FFFFFF" d="M248.04,301.596c1.312,0.885,3.092,0.539,3.977-0.772c0.885-1.311,0.539-3.092-0.773-3.977
					c-1.311-0.886-3.092-0.539-3.977,0.771C246.383,298.931,246.729,300.711,248.04,301.596z M247.964,298.089
					c0.625-0.927,1.884-1.172,2.812-0.546c0.927,0.625,1.172,1.884,0.546,2.811c-0.626,0.928-1.885,1.171-2.812,0.546
					C247.582,300.274,247.338,299.016,247.964,298.089z"/>
				<path fill="#FFFFFF" d="M261.082,306.895c-0.885,1.311-0.539,3.092,0.772,3.977c1.311,0.885,3.091,0.539,3.976-0.772
					c0.885-1.311,0.539-3.092-0.772-3.977C263.747,305.237,261.967,305.583,261.082,306.895z M264.589,306.818
					c0.928,0.625,1.172,1.884,0.546,2.811c-0.625,0.928-1.884,1.172-2.811,0.547c-0.927-0.626-1.171-1.885-0.546-2.812
					C262.402,306.436,263.662,306.192,264.589,306.818z"/>
				<path fill="#FFFFFF" d="M274.897,316.17c-0.885,1.311-0.539,3.091,0.771,3.976c1.311,0.885,3.092,0.539,3.977-0.773
					c0.885-1.31,0.539-3.091-0.772-3.975C277.56,314.513,275.781,314.858,274.897,316.17z M278.403,316.093
					c0.927,0.625,1.172,1.885,0.546,2.811c-0.626,0.928-1.885,1.172-2.812,0.547c-0.927-0.626-1.172-1.886-0.546-2.812
					C276.217,315.711,277.476,315.467,278.403,316.093z"/>
				<path fill="#FFFFFF" d="M293.459,328.648c0.885-1.311,0.539-3.091-0.773-3.975c-1.311-0.885-3.092-0.54-3.977,0.771
					c-0.885,1.312-0.539,3.092,0.772,3.977C290.793,330.306,292.573,329.96,293.459,328.648z M289.405,325.914
					c0.626-0.928,1.884-1.172,2.811-0.547c0.928,0.626,1.172,1.885,0.547,2.812c-0.626,0.928-1.886,1.171-2.812,0.546
					C289.024,328.1,288.779,326.841,289.405,325.914z"/>
				<path fill="#FFFFFF" d="M307.272,337.924c0.885-1.31,0.539-3.092-0.772-3.977c-1.311-0.885-3.092-0.539-3.977,0.772
					c-0.885,1.311-0.539,3.092,0.772,3.977C304.606,339.58,306.388,339.234,307.272,337.924z M303.219,335.19
					c0.626-0.928,1.885-1.172,2.812-0.547c0.928,0.626,1.172,1.885,0.546,2.811c-0.625,0.928-1.884,1.172-2.811,0.546
					C302.838,337.375,302.594,336.116,303.219,335.19z"/>
				<path fill="#FFFFFF" d="M316.338,343.994c-0.885,1.312-0.539,3.092,0.772,3.977c1.311,0.885,3.092,0.539,3.977-0.772
					c0.885-1.312,0.539-3.091-0.772-3.976C319.003,342.338,317.223,342.684,316.338,343.994z M319.845,343.918
					c0.928,0.625,1.172,1.884,0.546,2.811c-0.626,0.927-1.885,1.171-2.811,0.546c-0.927-0.625-1.172-1.885-0.546-2.811
					C317.659,343.536,318.918,343.292,319.845,343.918z"/>
				<path fill="#FFFFFF" d="M330.151,353.27c-0.885,1.311-0.538,3.092,0.772,3.977c1.311,0.885,3.092,0.539,3.977-0.772
					c0.885-1.311,0.539-3.091-0.772-3.976C332.816,351.613,331.037,351.959,330.151,353.27z M333.658,353.192
					c0.928,0.626,1.172,1.885,0.547,2.811c-0.626,0.928-1.885,1.172-2.812,0.547c-0.928-0.626-1.172-1.885-0.546-2.812
					C331.473,352.811,332.731,352.566,333.658,353.192z"/>
				<path fill="#FFFFFF" d="M223.486,308.237c1.311,0.885,3.091,0.539,3.977-0.772c0.884-1.312,0.539-3.092-0.773-3.977
					c-0.474-0.319-1.01-0.478-1.542-0.489c-0.223,0.311-0.444,0.621-0.667,0.932c0.567-0.178,1.208-0.105,1.739,0.253
					c0.928,0.626,1.172,1.885,0.547,2.811c-0.626,0.927-1.885,1.172-2.812,0.546c-0.563-0.38-0.875-0.994-0.891-1.626
					c-0.222,0.31-0.443,0.622-0.665,0.933C222.599,307.395,222.967,307.886,223.486,308.237z"/>
				<path fill="#FFFFFF" d="M237.3,317.512c1.311,0.885,3.092,0.539,3.977-0.772c0.885-1.312,0.539-3.091-0.771-3.976
					c-1.312-0.886-3.093-0.54-3.978,0.771C235.643,314.847,235.988,316.627,237.3,317.512z M237.224,314.005
					c0.626-0.928,1.885-1.172,2.811-0.546c0.927,0.626,1.172,1.885,0.546,2.811c-0.626,0.927-1.884,1.172-2.811,0.546
					S236.598,314.932,237.224,314.005z"/>
				<path fill="#FFFFFF" d="M250.342,322.81c-0.885,1.312-0.539,3.092,0.772,3.977c1.312,0.885,3.091,0.539,3.976-0.773
					c0.885-1.311,0.539-3.092-0.771-3.977C253.007,321.153,251.227,321.499,250.342,322.81z M253.85,322.733
					c0.927,0.626,1.171,1.885,0.545,2.812c-0.625,0.927-1.884,1.171-2.811,0.546c-0.928-0.626-1.172-1.885-0.547-2.812
					C251.663,322.353,252.922,322.107,253.85,322.733z"/>
				<path fill="#FFFFFF" d="M264.156,332.085c-0.885,1.312-0.539,3.092,0.772,3.978c1.311,0.885,3.092,0.539,3.977-0.772
					c0.885-1.312,0.539-3.092-0.772-3.977C266.82,330.429,265.041,330.773,264.156,332.085z M267.663,332.009
					c0.927,0.626,1.172,1.884,0.546,2.812c-0.626,0.928-1.885,1.172-2.812,0.546c-0.927-0.626-1.171-1.885-0.546-2.812
					C265.477,331.628,266.736,331.383,267.663,332.009z"/>
				<path fill="#FFFFFF" d="M282.719,344.565c0.885-1.312,0.539-3.092-0.772-3.977c-1.312-0.885-3.092-0.539-3.977,0.773
					c-0.885,1.311-0.539,3.091,0.772,3.977C280.053,346.222,281.834,345.876,282.719,344.565z M279.211,344.642
					c-0.927-0.626-1.172-1.885-0.546-2.811c0.626-0.928,1.884-1.172,2.811-0.546c0.928,0.626,1.172,1.884,0.547,2.811
					C281.397,345.022,280.138,345.268,279.211,344.642z"/>
				<path fill="#FFFFFF" d="M292.556,354.611c1.312,0.885,3.092,0.539,3.977-0.771c0.885-1.312,0.539-3.092-0.772-3.977
					c-1.311-0.885-3.091-0.539-3.975,0.772C290.898,351.947,291.245,353.727,292.556,354.611z M292.478,351.104
					c0.626-0.927,1.885-1.172,2.812-0.546c0.927,0.625,1.171,1.885,0.546,2.812c-0.626,0.927-1.885,1.171-2.812,0.546
					C292.098,353.291,291.853,352.031,292.478,351.104z"/>
				<path fill="#FFFFFF" d="M306.37,363.887c1.312,0.885,3.092,0.539,3.976-0.771c0.885-1.311,0.54-3.092-0.772-3.977
					c-1.311-0.886-3.092-0.54-3.977,0.772C304.713,361.222,305.059,363.002,306.37,363.887z M306.293,360.38
					c0.626-0.927,1.885-1.172,2.812-0.546c0.927,0.625,1.171,1.884,0.546,2.811c-0.626,0.927-1.886,1.171-2.812,0.546
					C305.912,362.565,305.667,361.307,306.293,360.38z"/>
				<path fill="#FFFFFF" d="M319.412,369.185c-0.885,1.311-0.539,3.092,0.771,3.977c1.311,0.885,3.092,0.539,3.977-0.773
					c0.885-1.311,0.539-3.092-0.771-3.977C322.077,367.528,320.297,367.874,319.412,369.185z M322.918,369.109
					c0.928,0.625,1.172,1.884,0.547,2.81c-0.626,0.928-1.885,1.172-2.812,0.547c-0.928-0.626-1.172-1.885-0.546-2.811
					C320.732,368.728,321.991,368.483,322.918,369.109z"/>
				<path fill="#FFFFFF" d="M333.226,378.461c-0.885,1.311-0.539,3.091,0.772,3.976c1.311,0.885,3.092,0.539,3.977-0.772
					c0.885-1.311,0.539-3.091-0.773-3.976C335.891,376.804,334.11,377.149,333.226,378.461z M336.732,378.384
					c0.928,0.626,1.172,1.884,0.546,2.812c-0.626,0.928-1.884,1.172-2.811,0.547c-0.927-0.626-1.172-1.886-0.546-2.812
					C334.547,378.002,335.806,377.758,336.732,378.384z"/>
				<path fill="#FFFFFF" d="M212.746,324.152c1.311,0.885,3.092,0.539,3.977-0.771c0.885-1.312,0.539-3.092-0.772-3.977
					c-0.642-0.434-1.397-0.571-2.104-0.444c-0.771,1.103-1.544,2.209-2.316,3.318C211.659,323.016,212.076,323.701,212.746,324.152z
					 M212.67,320.646c0.625-0.927,1.884-1.171,2.811-0.546c0.928,0.626,1.172,1.885,0.547,2.811
					c-0.626,0.927-1.885,1.172-2.812,0.546C212.288,322.832,212.044,321.573,212.67,320.646z"/>
				<path fill="#FFFFFF" d="M226.56,333.428c1.311,0.885,3.092,0.539,3.977-0.772c0.885-1.311,0.539-3.091-0.772-3.976
					c-1.312-0.885-3.092-0.539-3.978,0.772C224.903,330.763,225.249,332.543,226.56,333.428z M226.483,329.92
					c0.626-0.927,1.885-1.171,2.812-0.545c0.928,0.625,1.172,1.884,0.546,2.811c-0.626,0.927-1.884,1.171-2.812,0.546
					C226.102,332.107,225.857,330.848,226.483,329.92z"/>
				<path fill="#FFFFFF" d="M239.602,338.727c-0.885,1.311-0.539,3.092,0.772,3.977c1.312,0.885,3.091,0.539,3.976-0.772
					c0.885-1.312,0.539-3.091-0.771-3.976C242.268,337.07,240.486,337.416,239.602,338.727z M243.109,338.649
					c0.927,0.626,1.171,1.885,0.546,2.811c-0.626,0.928-1.885,1.172-2.812,0.546c-0.928-0.625-1.172-1.884-0.547-2.811
					C240.923,338.269,242.182,338.023,243.109,338.649z"/>
				<path fill="#FFFFFF" d="M253.416,348.001c-0.885,1.311-0.539,3.092,0.771,3.977c1.311,0.885,3.092,0.539,3.977-0.772
					c0.885-1.311,0.539-3.091-0.771-3.977C256.08,346.345,254.301,346.69,253.416,348.001z M256.923,347.925
					c0.927,0.626,1.172,1.885,0.546,2.811c-0.625,0.928-1.885,1.172-2.811,0.546c-0.928-0.626-1.172-1.884-0.546-2.811
					C254.737,347.543,255.996,347.299,256.923,347.925z"/>
				<path fill="#FFFFFF" d="M271.978,360.48c0.885-1.312,0.539-3.092-0.772-3.977c-1.311-0.885-3.092-0.539-3.977,0.772
					c-0.885,1.311-0.539,3.092,0.772,3.977C269.314,362.138,271.094,361.792,271.978,360.48z M268.471,360.558
					c-0.927-0.626-1.171-1.885-0.545-2.811c0.625-0.928,1.884-1.172,2.811-0.547c0.927,0.626,1.171,1.885,0.546,2.812
					C270.657,360.939,269.398,361.183,268.471,360.558z"/>
				<path fill="#FFFFFF" d="M281.816,370.528c1.31,0.885,3.091,0.539,3.976-0.772c0.885-1.312,0.539-3.092-0.772-3.977
					c-1.31-0.885-3.091-0.539-3.976,0.772C280.159,367.862,280.505,369.644,281.816,370.528z M281.739,367.021
					c0.625-0.927,1.885-1.172,2.812-0.546c0.928,0.626,1.172,1.885,0.546,2.811c-0.626,0.927-1.884,1.172-2.812,0.546
					C281.357,369.207,281.113,367.947,281.739,367.021z"/>
				<path fill="#FFFFFF" d="M295.63,379.803c1.311,0.885,3.092,0.539,3.977-0.772c0.885-1.311,0.539-3.091-0.772-3.976
					c-1.312-0.886-3.092-0.54-3.977,0.772C293.973,377.138,294.318,378.918,295.63,379.803z M295.553,376.296
					c0.626-0.928,1.885-1.172,2.812-0.546c0.927,0.626,1.172,1.885,0.546,2.811c-0.626,0.927-1.886,1.172-2.812,0.546
					C295.172,378.481,294.928,377.223,295.553,376.296z"/>
				<path fill="#FFFFFF" d="M309.443,389.078c1.312,0.885,3.092,0.539,3.977-0.772c0.885-1.312,0.539-3.092-0.771-3.977
					c-1.311-0.885-3.092-0.539-3.977,0.772C307.787,386.413,308.133,388.193,309.443,389.078z M309.367,385.57
					c0.625-0.927,1.884-1.172,2.812-0.546c0.927,0.626,1.171,1.885,0.546,2.812c-0.625,0.927-1.885,1.171-2.812,0.545
					C308.986,387.757,308.741,386.498,309.367,385.57z"/>
				<path fill="#FFFFFF" d="M322.485,394.377c-0.885,1.31-0.539,3.092,0.773,3.976c1.311,0.885,3.092,0.539,3.977-0.772
					c0.885-1.312,0.539-3.092-0.772-3.977C325.15,392.72,323.371,393.065,322.485,394.377z M325.993,394.3
					c0.927,0.626,1.171,1.884,0.545,2.811c-0.625,0.928-1.884,1.172-2.812,0.546c-0.927-0.626-1.172-1.885-0.546-2.811
					C323.807,393.919,325.065,393.674,325.993,394.3z"/>
				<path fill="#FFFFFF" d="M341.048,406.855c0.885-1.312,0.539-3.092-0.772-3.977c-1.311-0.885-3.091-0.539-3.976,0.772
					c-0.885,1.311-0.539,3.091,0.772,3.977C338.383,408.513,340.163,408.167,341.048,406.855z M337.541,406.933
					c-0.928-0.626-1.172-1.885-0.546-2.811c0.626-0.928,1.884-1.172,2.812-0.546c0.928,0.626,1.172,1.884,0.546,2.811
					C339.727,407.314,338.468,407.559,337.541,406.933z"/>
				<path fill="#FFFFFF" d="M350.886,416.902c0.145,0.099,0.298,0.182,0.454,0.25l-0.242-1.15c-0.617-0.58-0.805-1.488-0.475-2.264
					l-0.242-1.151c-0.096,0.104-0.185,0.218-0.267,0.34C349.228,414.238,349.574,416.018,350.886,416.902z"/>
				<path fill="#FFFFFF" d="M202.006,340.068c1.312,0.885,3.092,0.539,3.977-0.771c0.885-1.311,0.539-3.092-0.773-3.977
					c-0.734-0.496-1.618-0.605-2.407-0.374c-0.684,1.002-1.365,2.007-2.047,3.012C200.833,338.783,201.266,339.568,202.006,340.068z
					 M201.93,336.561c0.625-0.927,1.884-1.172,2.811-0.546c0.928,0.626,1.172,1.885,0.547,2.812
					c-0.626,0.927-1.885,1.171-2.811,0.545C201.548,338.748,201.304,337.488,201.93,336.561z"/>
				<path fill="#FFFFFF" d="M215.819,349.344c1.311,0.885,3.093,0.539,3.978-0.772c0.885-1.312,0.539-3.092-0.773-3.977
					c-1.311-0.885-3.092-0.54-3.977,0.771C214.163,346.679,214.509,348.459,215.819,349.344z M215.743,345.837
					c0.626-0.927,1.885-1.172,2.812-0.546c0.928,0.625,1.172,1.884,0.546,2.812c-0.626,0.928-1.884,1.171-2.812,0.546
					C215.362,348.022,215.117,346.764,215.743,345.837z"/>
				<path fill="#FFFFFF" d="M228.861,354.643c-0.884,1.31-0.538,3.091,0.773,3.977c1.311,0.885,3.092,0.539,3.977-0.772
					c0.885-1.312,0.539-3.092-0.772-3.977C231.527,352.985,229.747,353.331,228.861,354.643z M232.369,354.566
					c0.928,0.625,1.172,1.884,0.546,2.811c-0.626,0.928-1.885,1.172-2.811,0.547c-0.928-0.626-1.172-1.885-0.546-2.811
					C230.184,354.185,231.441,353.94,232.369,354.566z"/>
				<path fill="#FFFFFF" d="M242.676,363.918c-0.885,1.31-0.539,3.091,0.771,3.976c1.312,0.885,3.092,0.539,3.978-0.772
					c0.884-1.311,0.539-3.091-0.773-3.976C245.341,362.261,243.561,362.606,242.676,363.918z M246.183,363.841
					c0.927,0.625,1.172,1.884,0.546,2.812c-0.625,0.928-1.884,1.172-2.811,0.547c-0.928-0.626-1.171-1.886-0.546-2.812
					C243.997,363.459,245.256,363.215,246.183,363.841z"/>
				<path fill="#FFFFFF" d="M260.467,372.421c-1.311-0.886-3.092-0.54-3.978,0.772c-0.885,1.311-0.539,3.092,0.772,3.977
					c1.312,0.885,3.092,0.539,3.977-0.772C262.123,375.086,261.777,373.306,260.467,372.421z M260.543,375.928
					c-0.626,0.927-1.885,1.171-2.812,0.546c-0.927-0.626-1.172-1.885-0.546-2.811c0.625-0.928,1.885-1.172,2.812-0.547
					C260.924,373.741,261.169,375,260.543,375.928z"/>
				<path fill="#FFFFFF" d="M271.076,386.443c1.31,0.885,3.091,0.539,3.975-0.771c0.885-1.311,0.539-3.092-0.772-3.977
					c-1.311-0.885-3.091-0.539-3.976,0.771C269.419,383.778,269.765,385.559,271.076,386.443z M270.999,382.938
					c0.626-0.928,1.885-1.172,2.811-0.547c0.928,0.626,1.172,1.885,0.547,2.811c-0.626,0.927-1.885,1.172-2.812,0.546
					C270.617,385.123,270.373,383.864,270.999,382.938z"/>
				<path fill="#FFFFFF" d="M284.89,395.719c1.312,0.885,3.092,0.539,3.977-0.773c0.885-1.311,0.539-3.091-0.773-3.976
					c-1.311-0.885-3.092-0.539-3.977,0.771C283.232,393.054,283.578,394.834,284.89,395.719z M284.814,392.211
					c0.625-0.927,1.884-1.171,2.811-0.545c0.927,0.625,1.172,1.884,0.546,2.812c-0.626,0.927-1.885,1.172-2.812,0.546
					C284.432,394.398,284.188,393.139,284.814,392.211z"/>
				<path fill="#FFFFFF" d="M298.704,404.994c1.31,0.885,3.091,0.539,3.976-0.772c0.885-1.312,0.539-3.091-0.771-3.976
					c-1.311-0.885-3.092-0.539-3.977,0.772C297.047,402.328,297.393,404.109,298.704,404.994z M298.627,401.486
					c0.625-0.927,1.884-1.172,2.812-0.546c0.928,0.626,1.172,1.885,0.546,2.812c-0.625,0.928-1.885,1.172-2.812,0.546
					C298.246,403.673,298.001,402.414,298.627,401.486z"/>
				<path fill="#FFFFFF" d="M316.494,413.496c0.885-1.311,0.539-3.091-0.772-3.976c-1.312-0.886-3.091-0.539-3.976,0.771
					c-0.885,1.311-0.539,3.092,0.772,3.977C313.829,415.153,315.609,414.808,316.494,413.496z M312.986,413.573
					c-0.927-0.626-1.171-1.884-0.546-2.812c0.626-0.928,1.886-1.172,2.812-0.546c0.927,0.625,1.172,1.885,0.546,2.812
					C315.173,413.954,313.914,414.199,312.986,413.573z"/>
				<path fill="#FFFFFF" d="M330.308,422.772c0.886-1.312,0.54-3.092-0.771-3.977c-1.311-0.885-3.092-0.539-3.977,0.773
					c-0.885,1.311-0.539,3.092,0.772,3.977C327.643,424.429,329.424,424.083,330.308,422.772z M326.801,422.849
					c-0.927-0.626-1.172-1.885-0.546-2.812c0.626-0.927,1.884-1.171,2.811-0.546c0.928,0.626,1.172,1.885,0.547,2.812
					C328.987,423.229,327.728,423.474,326.801,422.849z"/>
				<path fill="#FFFFFF" d="M344.122,432.047c0.885-1.311,0.539-3.092-0.772-3.977c-1.311-0.885-3.092-0.539-3.977,0.771
					c-0.885,1.311-0.539,3.093,0.773,3.978C341.457,433.704,343.237,433.358,344.122,432.047z M340.615,432.123
					c-0.928-0.625-1.172-1.885-0.547-2.811c0.626-0.927,1.885-1.172,2.812-0.546c0.928,0.626,1.172,1.885,0.546,2.811
					C342.801,432.505,341.542,432.749,340.615,432.123z"/>
				<path fill="#FFFFFF" d="M353.188,438.117c-0.885,1.312-0.539,3.092,0.772,3.977c0.818,0.553,1.819,0.625,2.671,0.283
					l-0.176-0.84c-0.63,0.309-1.402,0.282-2.026-0.139c-0.927-0.626-1.172-1.885-0.546-2.811c0.408-0.605,1.086-0.92,1.766-0.892
					l-0.176-0.838C354.585,436.886,353.723,437.325,353.188,438.117z"/>
				<path fill="#FFFFFF" d="M191.266,355.985c1.312,0.885,3.092,0.539,3.977-0.773c0.885-1.311,0.539-3.092-0.771-3.977
					c-0.713-0.481-1.564-0.598-2.335-0.395c-0.702,1.065-1.402,2.129-2.1,3.193C190.15,354.801,190.574,355.518,191.266,355.985z
					 M191.189,352.478c0.625-0.927,1.885-1.172,2.812-0.546c0.927,0.626,1.172,1.885,0.546,2.812
					c-0.625,0.928-1.885,1.172-2.812,0.546C190.809,354.664,190.564,353.404,191.189,352.478z"/>
				<path fill="#FFFFFF" d="M205.08,365.26c1.312,0.885,3.092,0.539,3.977-0.772c0.885-1.311,0.539-3.091-0.772-3.977
					c-1.312-0.885-3.091-0.539-3.977,0.772C203.423,362.595,203.768,364.375,205.08,365.26z M205.003,361.753
					c0.626-0.928,1.885-1.172,2.812-0.546c0.927,0.625,1.171,1.885,0.545,2.812c-0.625,0.927-1.884,1.172-2.812,0.546
					C204.622,363.939,204.377,362.68,205.003,361.753z"/>
				<path fill="#FFFFFF" d="M218.122,370.559c-0.885,1.311-0.539,3.092,0.772,3.977c1.311,0.885,3.091,0.539,3.976-0.772
					s0.539-3.092-0.773-3.977C220.787,368.901,219.007,369.247,218.122,370.559z M221.629,370.481
					c0.928,0.626,1.172,1.885,0.546,2.812c-0.626,0.927-1.885,1.171-2.812,0.546c-0.928-0.626-1.172-1.885-0.546-2.812
					C219.443,370.101,220.701,369.855,221.629,370.481z"/>
				<path fill="#FFFFFF" d="M231.936,379.833c-0.885,1.311-0.539,3.093,0.772,3.977c1.311,0.885,3.092,0.539,3.977-0.772
					c0.885-1.311,0.539-3.092-0.773-3.977C234.601,378.177,232.82,378.522,231.936,379.833z M235.442,379.757
					c0.928,0.626,1.172,1.884,0.546,2.812c-0.625,0.927-1.884,1.172-2.811,0.546c-0.928-0.626-1.172-1.885-0.547-2.812
					C233.257,379.376,234.516,379.131,235.442,379.757z"/>
				<path fill="#FFFFFF" d="M250.498,392.312c0.885-1.31,0.539-3.092-0.771-3.977c-1.312-0.885-3.092-0.539-3.978,0.772
					c-0.885,1.311-0.539,3.091,0.773,3.977C247.833,393.97,249.613,393.624,250.498,392.312z M246.991,392.39
					c-0.927-0.626-1.172-1.885-0.546-2.811c0.625-0.928,1.885-1.172,2.812-0.546c0.928,0.626,1.172,1.884,0.546,2.812
					C249.177,392.771,247.918,393.016,246.991,392.39z"/>
				<path fill="#FFFFFF" d="M264.311,401.588c0.885-1.311,0.539-3.092-0.771-3.977c-1.312-0.885-3.091-0.539-3.977,0.772
					c-0.885,1.312-0.539,3.091,0.772,3.976C261.647,403.244,263.427,402.898,264.311,401.588z M260.805,401.665
					c-0.927-0.626-1.171-1.886-0.546-2.812c0.626-0.927,1.885-1.172,2.812-0.546c0.928,0.626,1.172,1.885,0.547,2.812
					C262.991,402.046,261.732,402.29,260.805,401.665z"/>
				<path fill="#FFFFFF" d="M278.126,410.863c0.885-1.312,0.539-3.092-0.772-3.977c-1.311-0.886-3.093-0.539-3.978,0.772
					c-0.885,1.311-0.539,3.092,0.773,3.977C275.461,412.52,277.241,412.174,278.126,410.863z M274.619,410.94
					c-0.928-0.626-1.172-1.885-0.546-2.812c0.626-0.927,1.884-1.172,2.811-0.546c0.927,0.625,1.172,1.884,0.546,2.811
					C276.805,411.321,275.546,411.565,274.619,410.94z"/>
				<path fill="#FFFFFF" d="M291.939,420.138c0.885-1.311,0.539-3.092-0.771-3.977c-1.312-0.885-3.092-0.539-3.977,0.772
					c-0.885,1.311-0.539,3.092,0.772,3.977C289.275,421.795,291.055,421.449,291.939,420.138z M288.434,420.215
					c-0.928-0.626-1.172-1.885-0.547-2.812c0.626-0.928,1.885-1.172,2.812-0.546c0.927,0.625,1.171,1.884,0.546,2.811
					C290.619,420.596,289.36,420.84,288.434,420.215z"/>
				<path fill="#FFFFFF" d="M305.754,429.412c0.885-1.311,0.539-3.091-0.772-3.976c-1.312-0.885-3.091-0.539-3.976,0.773
					c-0.885,1.31-0.539,3.091,0.772,3.976C303.089,431.069,304.869,430.724,305.754,429.412z M302.246,429.49
					c-0.927-0.626-1.171-1.886-0.545-2.812c0.625-0.928,1.885-1.172,2.811-0.546c0.927,0.626,1.172,1.884,0.546,2.812
					C304.433,429.871,303.174,430.115,302.246,429.49z"/>
				<path fill="#FFFFFF" d="M319.568,438.688c0.885-1.31,0.539-3.091-0.772-3.976c-1.311-0.885-3.092-0.54-3.977,0.771
					c-0.885,1.311-0.539,3.092,0.772,3.977C316.903,440.345,318.684,439.999,319.568,438.688z M316.06,438.765
					c-0.927-0.626-1.171-1.885-0.546-2.811c0.626-0.928,1.885-1.172,2.812-0.547c0.928,0.626,1.172,1.885,0.547,2.812
					C318.247,439.146,316.988,439.39,316.06,438.765z"/>
				<path fill="#FFFFFF" d="M333.382,447.963c0.885-1.311,0.539-3.092-0.772-3.977c-1.311-0.885-3.091-0.539-3.976,0.772
					c-0.886,1.311-0.539,3.092,0.772,3.977C330.717,449.619,332.497,449.273,333.382,447.963z M329.875,448.039
					c-0.928-0.625-1.172-1.884-0.547-2.811c0.626-0.928,1.886-1.172,2.812-0.547c0.928,0.626,1.171,1.885,0.546,2.812
					C332.06,448.42,330.802,448.665,329.875,448.039z"/>
				<path fill="#FFFFFF" d="M347.195,457.237c0.885-1.311,0.54-3.091-0.772-3.976c-1.311-0.885-3.092-0.539-3.977,0.772
					c-0.885,1.311-0.539,3.092,0.772,3.977C344.531,458.895,346.31,458.549,347.195,457.237z M343.689,457.315
					c-0.927-0.625-1.172-1.885-0.546-2.812c0.626-0.928,1.885-1.172,2.812-0.546c0.927,0.625,1.171,1.884,0.545,2.812
					C345.875,457.695,344.615,457.94,343.689,457.315z"/>
				<path fill="#FFFFFF" d="M360.238,462.537c-1.312-0.886-3.092-0.539-3.977,0.771c-0.885,1.311-0.539,3.092,0.772,3.977
					c1.311,0.885,3.092,0.539,3.977-0.772c0.236-0.35,0.384-0.732,0.449-1.122l-0.432-2.056
					C360.826,463.027,360.561,462.755,360.238,462.537z M360.314,466.043c-0.626,0.928-1.885,1.172-2.811,0.546
					c-0.928-0.625-1.172-1.884-0.546-2.812c0.625-0.927,1.884-1.172,2.811-0.546C360.695,463.857,360.939,465.116,360.314,466.043z"
					/>
				<path fill="#FFFFFF" d="M180.526,371.9c1.311,0.885,3.091,0.539,3.976-0.771c0.885-1.311,0.539-3.092-0.771-3.977
					c-0.567-0.383-1.223-0.535-1.855-0.479c-0.222,0.35-0.443,0.697-0.664,1.047c0.635-0.321,1.419-0.299,2.05,0.127
					c0.928,0.625,1.172,1.885,0.546,2.812c-0.625,0.927-1.884,1.172-2.811,0.546c-0.595-0.401-0.908-1.064-0.892-1.732
					c-0.22,0.35-0.44,0.699-0.66,1.049C179.643,371.065,180.01,371.553,180.526,371.9z"/>
				<path fill="#FFFFFF" d="M194.34,381.176c1.312,0.885,3.092,0.539,3.977-0.773c0.885-1.311,0.539-3.091-0.773-3.976
					c-1.311-0.885-3.091-0.539-3.976,0.771C192.684,378.511,193.029,380.291,194.34,381.176z M194.264,377.668
					c0.625-0.927,1.884-1.171,2.811-0.545c0.927,0.625,1.172,1.884,0.546,2.812c-0.626,0.927-1.885,1.171-2.812,0.546
					C193.882,379.855,193.637,378.596,194.264,377.668z"/>
				<path fill="#FFFFFF" d="M207.382,386.475c-0.885,1.311-0.539,3.091,0.772,3.977c1.311,0.885,3.092,0.539,3.977-0.772
					c0.885-1.312,0.539-3.091-0.772-3.976C210.047,384.818,208.267,385.163,207.382,386.475z M210.889,386.397
					c0.928,0.626,1.172,1.885,0.547,2.812c-0.626,0.928-1.886,1.172-2.812,0.547c-0.927-0.626-1.172-1.885-0.546-2.812
					C208.703,386.017,209.961,385.772,210.889,386.397z"/>
				<path fill="#FFFFFF" d="M225.944,398.953c0.885-1.31,0.539-3.092-0.772-3.976c-1.311-0.886-3.092-0.54-3.977,0.771
					s-0.539,3.092,0.773,3.977C223.279,400.61,225.06,400.265,225.944,398.953z M222.438,399.03
					c-0.928-0.626-1.172-1.884-0.547-2.811c0.626-0.928,1.885-1.172,2.812-0.546c0.927,0.626,1.171,1.885,0.546,2.811
					C224.623,399.411,223.364,399.656,222.438,399.03z"/>
				<path fill="#FFFFFF" d="M239.758,408.228c0.885-1.311,0.539-3.092-0.771-3.976c-1.311-0.885-3.092-0.539-3.977,0.772
					c-0.885,1.311-0.539,3.092,0.771,3.977C237.094,409.886,238.873,409.54,239.758,408.228z M236.251,408.305
					c-0.927-0.625-1.172-1.884-0.546-2.811c0.626-0.927,1.885-1.171,2.812-0.546c0.928,0.626,1.172,1.885,0.546,2.812
					C238.436,408.686,237.178,408.931,236.251,408.305z"/>
				<path fill="#FFFFFF" d="M253.572,417.504c0.885-1.311,0.539-3.092-0.772-3.977c-1.312-0.885-3.091-0.539-3.976,0.771
					c-0.885,1.312-0.539,3.093,0.771,3.978C250.906,419.161,252.688,418.815,253.572,417.504z M250.065,417.58
					c-0.928-0.625-1.172-1.885-0.546-2.812c0.625-0.927,1.884-1.172,2.811-0.546c0.928,0.626,1.172,1.885,0.547,2.812
					C252.251,417.962,250.992,418.206,250.065,417.58z"/>
				<path fill="#FFFFFF" d="M267.386,426.778c0.886-1.311,0.54-3.091-0.772-3.977c-1.311-0.885-3.092-0.539-3.977,0.772
					c-0.886,1.312-0.54,3.092,0.772,3.977C264.721,428.435,266.501,428.09,267.386,426.778z M263.879,426.855
					c-0.927-0.626-1.172-1.885-0.546-2.812c0.626-0.927,1.885-1.171,2.811-0.545c0.927,0.626,1.172,1.885,0.546,2.812
					C266.064,427.236,264.807,427.481,263.879,426.855z"/>
				<path fill="#FFFFFF" d="M281.199,436.054c0.886-1.312,0.54-3.092-0.771-3.977c-1.311-0.885-3.092-0.539-3.977,0.773
					c-0.885,1.311-0.539,3.092,0.772,3.977C278.535,437.711,280.314,437.365,281.199,436.054z M277.693,436.131
					c-0.928-0.626-1.172-1.885-0.547-2.812c0.626-0.927,1.885-1.172,2.812-0.546c0.927,0.626,1.172,1.885,0.546,2.812
					C279.879,436.512,278.62,436.756,277.693,436.131z"/>
				<path fill="#FFFFFF" d="M295.014,445.329c0.886-1.311,0.539-3.092-0.772-3.977c-1.312-0.885-3.091-0.54-3.976,0.771
					s-0.539,3.092,0.772,3.978C292.349,446.986,294.129,446.641,295.014,445.329z M291.507,445.405
					c-0.928-0.626-1.172-1.885-0.546-2.811c0.626-0.927,1.885-1.172,2.811-0.546c0.927,0.626,1.172,1.884,0.546,2.811
					C293.693,445.787,292.434,446.031,291.507,445.405z"/>
				<path fill="#FFFFFF" d="M308.828,454.603c0.885-1.31,0.539-3.092-0.772-3.976c-1.311-0.885-3.092-0.539-3.977,0.772
					c-0.885,1.311-0.539,3.091,0.772,3.977C306.163,456.261,307.943,455.915,308.828,454.603z M305.32,454.681
					c-0.927-0.626-1.171-1.885-0.545-2.812c0.625-0.928,1.884-1.172,2.812-0.546c0.927,0.626,1.171,1.884,0.546,2.812
					C307.507,455.061,306.248,455.307,305.32,454.681z"/>
				<path fill="#FFFFFF" d="M322.642,463.879c0.885-1.311,0.539-3.092-0.772-3.977c-1.311-0.885-3.091-0.539-3.976,0.772
					c-0.885,1.311-0.539,3.091,0.772,3.976C319.977,465.535,321.757,465.19,322.642,463.879z M319.135,463.956
					c-0.928-0.626-1.172-1.886-0.547-2.812c0.626-0.927,1.886-1.172,2.812-0.546c0.928,0.625,1.172,1.885,0.546,2.812
					C321.32,464.337,320.061,464.581,319.135,463.956z"/>
				<path fill="#FFFFFF" d="M335.684,469.178c-1.311-0.886-3.092-0.539-3.977,0.772c-0.885,1.311-0.539,3.091,0.772,3.976
					c1.311,0.885,3.092,0.539,3.977-0.772C337.341,471.843,336.995,470.062,335.684,469.178z M335.761,472.685
					c-0.626,0.927-1.885,1.171-2.812,0.546c-0.927-0.626-1.171-1.885-0.546-2.812c0.626-0.927,1.885-1.172,2.812-0.546
					C336.142,470.498,336.386,471.757,335.761,472.685z"/>
				<path fill="#FFFFFF" d="M349.498,478.452c-1.311-0.885-3.092-0.539-3.976,0.773c-0.885,1.311-0.539,3.092,0.771,3.977
					c1.311,0.885,3.092,0.539,3.977-0.772C351.154,481.117,350.809,479.337,349.498,478.452z M349.574,481.959
					c-0.625,0.928-1.885,1.172-2.811,0.547c-0.927-0.626-1.172-1.885-0.546-2.812c0.625-0.927,1.884-1.171,2.811-0.545
					C349.955,479.773,350.199,481.032,349.574,481.959z"/>
				<path fill="#FFFFFF" d="M169.786,387.816c1.311,0.885,3.091,0.539,3.976-0.772c0.885-1.311,0.54-3.092-0.771-3.977
					c-0.319-0.216-0.666-0.357-1.021-0.431c-0.158,0.261-0.315,0.522-0.473,0.782c0.355,0.019,0.709,0.131,1.025,0.344
					c0.927,0.625,1.172,1.885,0.545,2.812c-0.625,0.927-1.884,1.171-2.811,0.546c-0.252-0.17-0.453-0.388-0.602-0.632
					c-0.155,0.263-0.311,0.523-0.467,0.785C169.356,387.478,169.557,387.662,169.786,387.816z"/>
				<path fill="#FFFFFF" d="M187.576,396.32c0.885-1.312,0.539-3.092-0.773-3.977c-1.311-0.886-3.091-0.54-3.976,0.771
					c-0.885,1.312-0.539,3.092,0.771,3.977C184.911,397.977,186.691,397.631,187.576,396.32z M184.068,396.397
					c-0.927-0.626-1.171-1.885-0.545-2.812c0.626-0.927,1.885-1.172,2.811-0.546c0.927,0.625,1.172,1.884,0.546,2.811
					C186.256,396.777,184.996,397.022,184.068,396.397z"/>
				<path fill="#FFFFFF" d="M201.391,405.595c0.885-1.311,0.539-3.092-0.772-3.977c-1.312-0.885-3.092-0.539-3.977,0.772
					c-0.885,1.311-0.539,3.091,0.772,3.977C198.725,407.252,200.506,406.906,201.391,405.595z M197.883,405.672
					c-0.927-0.626-1.172-1.885-0.546-2.811c0.626-0.928,1.885-1.172,2.812-0.546c0.928,0.625,1.172,1.884,0.547,2.81
					C200.069,406.053,198.811,406.297,197.883,405.672z"/>
				<path fill="#FFFFFF" d="M215.204,414.869c0.885-1.311,0.539-3.091-0.773-3.976c-1.311-0.885-3.091-0.539-3.976,0.772
					c-0.886,1.311-0.539,3.091,0.771,3.976C212.539,416.526,214.319,416.181,215.204,414.869z M211.697,414.946
					c-0.928-0.625-1.172-1.885-0.547-2.811c0.626-0.928,1.885-1.172,2.812-0.546c0.927,0.625,1.172,1.884,0.546,2.811
					C213.883,415.328,212.625,415.572,211.697,414.946z"/>
				<path fill="#FFFFFF" d="M229.018,424.145c0.885-1.31,0.539-3.091-0.772-3.976c-1.311-0.886-3.092-0.54-3.977,0.771
					c-0.885,1.312-0.539,3.092,0.773,3.977C226.354,425.802,228.134,425.456,229.018,424.145z M225.511,424.221
					c-0.927-0.625-1.172-1.884-0.546-2.811c0.626-0.928,1.885-1.172,2.812-0.547c0.927,0.626,1.171,1.885,0.546,2.812
					C227.697,424.603,226.438,424.847,225.511,424.221z"/>
				<path fill="#FFFFFF" d="M242.832,433.42c0.885-1.311,0.539-3.092-0.771-3.977c-1.312-0.885-3.092-0.539-3.977,0.771
					c-0.885,1.312-0.539,3.092,0.771,3.977C240.167,435.076,241.947,434.73,242.832,433.42z M239.325,433.496
					c-0.928-0.625-1.172-1.884-0.546-2.811c0.625-0.927,1.884-1.171,2.811-0.546c0.928,0.626,1.172,1.885,0.547,2.811
					C241.511,433.877,240.252,434.122,239.325,433.496z"/>
				<path fill="#FFFFFF" d="M256.647,442.694c0.885-1.311,0.539-3.091-0.773-3.975c-1.311-0.885-3.092-0.539-3.977,0.771
					c-0.885,1.312-0.539,3.092,0.773,3.977C253.98,444.352,255.762,444.006,256.647,442.694z M253.139,442.772
					c-0.927-0.625-1.172-1.885-0.546-2.812c0.626-0.927,1.885-1.171,2.811-0.545c0.928,0.625,1.172,1.884,0.546,2.811
					C255.324,443.152,254.066,443.397,253.139,442.772z"/>
				<path fill="#FFFFFF" d="M270.46,451.97c0.885-1.311,0.539-3.091-0.772-3.976c-1.311-0.886-3.091-0.54-3.977,0.771
					c-0.884,1.311-0.538,3.091,0.773,3.977C267.795,453.627,269.575,453.281,270.46,451.97z M266.953,452.046
					c-0.928-0.625-1.172-1.884-0.546-2.811c0.626-0.927,1.884-1.172,2.811-0.546c0.928,0.626,1.172,1.885,0.546,2.811
					C269.139,452.428,267.88,452.672,266.953,452.046z"/>
				<path fill="#FFFFFF" d="M284.274,461.244c0.885-1.311,0.539-3.091-0.773-3.977c-1.311-0.885-3.092-0.539-3.977,0.772
					c-0.885,1.312-0.539,3.092,0.772,3.977C281.608,462.901,283.389,462.556,284.274,461.244z M280.767,461.321
					c-0.927-0.626-1.171-1.884-0.546-2.811c0.626-0.928,1.885-1.172,2.811-0.546c0.927,0.625,1.172,1.885,0.546,2.811
					C282.953,461.702,281.694,461.947,280.767,461.321z"/>
				<path fill="#FFFFFF" d="M298.088,470.52c0.885-1.311,0.539-3.092-0.771-3.977c-1.311-0.885-3.093-0.539-3.978,0.772
					c-0.885,1.312-0.539,3.092,0.772,3.977S297.203,471.831,298.088,470.52z M294.581,470.596c-0.928-0.625-1.172-1.884-0.546-2.811
					c0.625-0.927,1.884-1.171,2.812-0.546c0.927,0.626,1.172,1.885,0.546,2.812C296.767,470.978,295.508,471.222,294.581,470.596z"
					/>
				<path fill="#FFFFFF" d="M311.129,475.818c-1.311-0.885-3.091-0.539-3.976,0.771c-0.885,1.312-0.539,3.093,0.773,3.978
					c1.31,0.885,3.091,0.539,3.975-0.773C312.786,478.483,312.44,476.703,311.129,475.818z M311.207,479.325
					c-0.627,0.927-1.885,1.172-2.812,0.546c-0.928-0.625-1.172-1.885-0.546-2.811c0.626-0.927,1.885-1.172,2.811-0.546
					C311.588,477.14,311.832,478.398,311.207,479.325z"/>
				<path fill="#FFFFFF" d="M324.943,485.093c-1.311-0.885-3.092-0.539-3.977,0.772c-0.885,1.312-0.539,3.092,0.772,3.977
					c1.312,0.885,3.092,0.539,3.977-0.772C326.601,487.758,326.255,485.978,324.943,485.093z M325.021,488.601
					c-0.626,0.927-1.885,1.172-2.812,0.546c-0.927-0.626-1.171-1.885-0.545-2.812c0.625-0.927,1.884-1.171,2.812-0.545
					C325.401,486.415,325.647,487.674,325.021,488.601z"/>
				<path fill="#FFFFFF" d="M334.892,494.989c1.204-0.257,2.393-0.522,3.564-0.798C337.239,493.569,335.736,493.897,334.892,494.989
					z"/>
				<path fill="#FFFFFF" d="M163.022,402.961c0.86-1.276,0.556-2.996-0.67-3.903c-0.14,0.246-0.278,0.492-0.416,0.738
					c0.797,0.655,0.98,1.822,0.391,2.695c-0.522,0.774-1.487,1.072-2.332,0.785c-0.138,0.247-0.273,0.495-0.409,0.742
					C160.811,404.509,162.254,404.1,163.022,402.961z"/>
				<path fill="#FFFFFF" d="M176.836,412.235c0.886-1.312,0.54-3.091-0.771-3.977c-1.312-0.885-3.092-0.539-3.977,0.773
					c-0.885,1.311-0.539,3.092,0.771,3.977C174.171,413.893,175.951,413.547,176.836,412.235z M173.329,412.312
					c-0.927-0.626-1.172-1.885-0.546-2.811c0.626-0.928,1.885-1.172,2.811-0.546c0.927,0.625,1.172,1.885,0.546,2.811
					C175.516,412.693,174.256,412.939,173.329,412.312z"/>
				<path fill="#FFFFFF" d="M190.65,421.511c0.885-1.312,0.539-3.092-0.773-3.977c-1.311-0.885-3.092-0.539-3.977,0.772
					c-0.885,1.312-0.539,3.092,0.772,3.977C187.985,423.168,189.766,422.822,190.65,421.511z M187.143,421.588
					c-0.928-0.626-1.172-1.885-0.546-2.812c0.625-0.927,1.884-1.172,2.812-0.546c0.927,0.626,1.171,1.885,0.546,2.812
					C189.329,421.969,188.07,422.213,187.143,421.588z"/>
				<path fill="#FFFFFF" d="M204.464,430.786c0.885-1.311,0.539-3.092-0.772-3.977c-1.311-0.886-3.091-0.54-3.976,0.771
					c-0.885,1.312-0.539,3.093,0.772,3.978C201.799,432.443,203.579,432.098,204.464,430.786z M200.957,430.862
					c-0.928-0.626-1.172-1.885-0.546-2.811c0.625-0.927,1.885-1.172,2.811-0.546c0.928,0.626,1.172,1.884,0.546,2.811
					C203.143,431.243,201.885,431.488,200.957,430.862z"/>
				<path fill="#FFFFFF" d="M218.278,440.06c0.885-1.311,0.539-3.092-0.773-3.976c-1.311-0.885-3.092-0.539-3.977,0.772
					c-0.885,1.312-0.539,3.092,0.772,3.976C215.613,441.718,217.393,441.372,218.278,440.06z M214.77,440.138
					c-0.927-0.626-1.171-1.885-0.546-2.812c0.626-0.927,1.885-1.171,2.812-0.545c0.927,0.626,1.172,1.884,0.546,2.811
					C216.957,440.519,215.698,440.764,214.77,440.138z"/>
				<path fill="#FFFFFF" d="M232.092,449.336c0.885-1.311,0.539-3.092-0.771-3.977c-1.311-0.885-3.092-0.539-3.977,0.772
					c-0.885,1.312-0.539,3.091,0.771,3.976C229.427,450.992,231.207,450.647,232.092,449.336z M228.585,449.412
					c-0.927-0.625-1.171-1.885-0.546-2.812c0.625-0.927,1.885-1.172,2.812-0.546c0.928,0.625,1.171,1.885,0.546,2.812
					C230.771,449.794,229.512,450.038,228.585,449.412z"/>
				<path fill="#FFFFFF" d="M245.134,454.634c-1.312-0.884-3.091-0.539-3.977,0.773c-0.885,1.311-0.539,3.092,0.773,3.977
					c1.311,0.885,3.092,0.539,3.977-0.772C246.791,457.3,246.445,455.52,245.134,454.634z M245.21,458.142
					c-0.625,0.927-1.884,1.171-2.811,0.546c-0.927-0.626-1.172-1.885-0.546-2.811c0.626-0.927,1.885-1.172,2.812-0.546
					C245.592,455.955,245.836,457.214,245.21,458.142z"/>
				<path fill="#FFFFFF" d="M258.948,463.909c-1.312-0.885-3.092-0.539-3.977,0.772c-0.885,1.311-0.539,3.091,0.772,3.977
					c1.311,0.885,3.091,0.539,3.976-0.772C260.604,466.574,260.259,464.794,258.948,463.909z M259.024,467.416
					c-0.626,0.928-1.885,1.172-2.812,0.547c-0.928-0.626-1.172-1.885-0.546-2.811c0.626-0.928,1.884-1.172,2.811-0.546
					C259.406,465.23,259.65,466.489,259.024,467.416z"/>
				<path fill="#FFFFFF" d="M272.762,473.185c-1.311-0.885-3.092-0.539-3.977,0.772c-0.885,1.311-0.539,3.091,0.772,3.976
					c1.311,0.885,3.092,0.539,3.977-0.772C274.419,475.85,274.073,474.069,272.762,473.185z M272.838,476.691
					c-0.625,0.928-1.884,1.172-2.811,0.547c-0.928-0.626-1.172-1.886-0.547-2.812c0.626-0.928,1.885-1.172,2.811-0.546
					C273.22,474.505,273.464,475.764,272.838,476.691z"/>
				<path fill="#FFFFFF" d="M286.576,482.46c-1.312-0.886-3.092-0.54-3.977,0.771c-0.886,1.312-0.54,3.092,0.771,3.977
					s3.092,0.539,3.977-0.773C288.232,485.125,287.887,483.345,286.576,482.46z M286.652,485.967
					c-0.626,0.927-1.885,1.171-2.812,0.546c-0.927-0.626-1.172-1.885-0.546-2.811c0.626-0.928,1.885-1.172,2.812-0.547
					C287.033,483.78,287.278,485.039,286.652,485.967z"/>
				<path fill="#FFFFFF" d="M300.39,491.734c-1.311-0.885-3.092-0.539-3.976,0.771c-0.886,1.312-0.54,3.092,0.771,3.977
					c1.311,0.885,3.091,0.539,3.976-0.771C302.047,494.399,301.701,492.619,300.39,491.734z M300.467,495.241
					c-0.626,0.927-1.885,1.172-2.812,0.546c-0.927-0.625-1.171-1.884-0.546-2.812c0.626-0.927,1.885-1.171,2.811-0.546
					C300.848,493.056,301.092,494.315,300.467,495.241z"/>
				<path fill="#FFFFFF" d="M152.282,418.877c0.398-0.592,0.547-1.277,0.47-1.934c-0.475,0.942-0.941,1.877-1.399,2.805
					C151.713,419.538,152.033,419.246,152.282,418.877z"/>
				<path fill="#FFFFFF" d="M166.097,428.151c0.885-1.312,0.539-3.091-0.772-3.976c-1.312-0.885-3.092-0.539-3.977,0.771
					c-0.885,1.311-0.539,3.092,0.771,3.977C163.431,429.809,165.212,429.463,166.097,428.151z M162.589,428.228
					c-0.927-0.625-1.171-1.885-0.546-2.812c0.626-0.927,1.885-1.171,2.812-0.545c0.928,0.625,1.172,1.884,0.546,2.811
					C164.775,428.609,163.517,428.853,162.589,428.228z"/>
				<path fill="#FFFFFF" d="M179.91,437.427c0.885-1.312,0.539-3.091-0.771-3.976c-1.312-0.886-3.092-0.54-3.977,0.771
					c-0.886,1.311-0.54,3.092,0.771,3.976C177.245,439.084,179.025,438.738,179.91,437.427z M176.403,437.503
					c-0.927-0.625-1.172-1.884-0.546-2.811c0.625-0.927,1.885-1.172,2.811-0.546c0.927,0.626,1.172,1.885,0.546,2.811
					C178.589,437.885,177.33,438.129,176.403,437.503z"/>
				<path fill="#FFFFFF" d="M193.724,446.701c0.885-1.311,0.54-3.092-0.772-3.976c-1.311-0.886-3.091-0.54-3.976,0.772
					c-0.885,1.311-0.539,3.092,0.772,3.977C191.059,448.358,192.839,448.013,193.724,446.701z M190.217,446.778
					c-0.928-0.626-1.172-1.884-0.546-2.811c0.626-0.928,1.885-1.172,2.812-0.546c0.928,0.625,1.172,1.885,0.547,2.811
					C192.403,447.159,191.145,447.404,190.217,446.778z"/>
				<path fill="#FFFFFF" d="M207.538,455.977c0.885-1.312,0.539-3.092-0.773-3.977c-1.311-0.885-3.092-0.539-3.977,0.772
					c-0.885,1.312-0.539,3.092,0.772,3.977C204.873,457.634,206.653,457.288,207.538,455.977z M204.031,456.053
					c-0.928-0.625-1.172-1.884-0.546-2.811c0.625-0.927,1.884-1.171,2.812-0.546c0.927,0.626,1.172,1.885,0.546,2.812
					C206.217,456.435,204.958,456.679,204.031,456.053z"/>
				<path fill="#FFFFFF" d="M220.58,461.275c-1.312-0.885-3.092-0.539-3.977,0.772c-0.885,1.311-0.539,3.093,0.773,3.978
					c1.311,0.885,3.091,0.539,3.975-0.772C222.236,463.94,221.891,462.16,220.58,461.275z M220.656,464.782
					c-0.625,0.927-1.884,1.172-2.812,0.546c-0.927-0.625-1.171-1.885-0.546-2.811c0.626-0.927,1.885-1.172,2.812-0.546
					C221.038,462.597,221.282,463.855,220.656,464.782z"/>
				<path fill="#FFFFFF" d="M234.393,470.55c-1.311-0.885-3.091-0.539-3.975,0.772c-0.885,1.311-0.539,3.092,0.771,3.977
					c1.312,0.885,3.092,0.539,3.977-0.772C236.051,473.215,235.705,471.435,234.393,470.55z M234.471,474.058
					c-0.626,0.927-1.885,1.172-2.812,0.546c-0.927-0.626-1.171-1.885-0.546-2.811c0.626-0.928,1.886-1.172,2.812-0.546
					C234.852,471.871,235.096,473.131,234.471,474.058z"/>
				<path fill="#FFFFFF" d="M248.208,479.825c-1.311-0.885-3.092-0.539-3.977,0.772c-0.313,0.464-0.472,0.988-0.488,1.51
					c0.286-0.031,0.568-0.058,0.845-0.079c0.027-0.333,0.139-0.664,0.339-0.962c0.626-0.927,1.884-1.172,2.812-0.546
					c0.537,0.363,0.846,0.939,0.888,1.538c0.287,0.031,0.568,0.067,0.844,0.109C249.458,481.26,249.018,480.371,248.208,479.825z"/>
				<path fill="#FFFFFF" d="M262.022,489.101c-0.698-0.472-1.531-0.594-2.29-0.406c0.197,0.251,0.391,0.504,0.581,0.758
					c0.425-0.023,0.859,0.087,1.24,0.344c0.796,0.538,1.089,1.543,0.758,2.403c0.186,0.254,0.372,0.508,0.561,0.757
					C263.656,491.658,263.293,489.959,262.022,489.101z"/>
				<path fill="#FFFFFF" d="M275.836,498.375c-1.311-0.885-3.092-0.539-3.977,0.772c-0.018,0.024-0.032,0.05-0.048,0.075
					c0.293,0.059,0.6,0.114,0.92,0.168c0.665-0.736,1.788-0.892,2.635-0.319c0.288,0.193,0.509,0.448,0.659,0.735
					c0.307,0.028,0.619,0.056,0.939,0.081C276.776,499.291,276.393,498.752,275.836,498.375z"/>
				<path fill="#FFFFFF" d="M154.584,440.091c-1.311-0.885-3.092-0.539-3.977,0.773c-0.885,1.311-0.539,3.092,0.772,3.977
					c1.312,0.885,3.092,0.539,3.977-0.771C156.241,442.757,155.895,440.976,154.584,440.091z M154.66,443.599
					c-0.625,0.927-1.884,1.171-2.811,0.546c-0.928-0.626-1.172-1.885-0.547-2.811c0.626-0.927,1.885-1.172,2.811-0.546
					C155.042,441.412,155.286,442.671,154.66,443.599z"/>
				<path fill="#FFFFFF" d="M168.398,449.366c-1.312-0.885-3.092-0.539-3.977,0.772c-0.885,1.31-0.539,3.091,0.772,3.976
					c1.311,0.886,3.091,0.54,3.976-0.771C170.055,452.031,169.709,450.251,168.398,449.366z M168.475,452.873
					c-0.626,0.928-1.885,1.172-2.811,0.547c-0.927-0.626-1.172-1.885-0.546-2.812c0.626-0.927,1.885-1.171,2.811-0.545
					C168.856,450.688,169.101,451.946,168.475,452.873z"/>
				<path fill="#FFFFFF" d="M182.212,458.642c-1.311-0.885-3.091-0.539-3.977,0.772c-0.884,1.311-0.539,3.091,0.772,3.975
					c1.311,0.885,3.091,0.539,3.976-0.772C183.869,461.307,183.523,459.526,182.212,458.642z M182.289,462.148
					c-0.626,0.928-1.885,1.172-2.812,0.546c-0.927-0.625-1.171-1.885-0.546-2.811c0.626-0.928,1.885-1.172,2.812-0.547
					C182.67,459.963,182.914,461.221,182.289,462.148z"/>
				<path fill="#FFFFFF" d="M196.026,467.916c-1.312-0.885-3.093-0.539-3.977,0.773c-0.886,1.311-0.54,3.091,0.771,3.977
					c1.311,0.885,3.092,0.539,3.977-0.772C197.684,470.582,197.337,468.802,196.026,467.916z M196.102,471.423
					c-0.626,0.928-1.884,1.172-2.811,0.546c-0.927-0.625-1.172-1.884-0.546-2.811c0.626-0.928,1.884-1.172,2.811-0.547
					C196.483,469.237,196.729,470.496,196.102,471.423z"/>
				<path fill="#FFFFFF" d="M209.84,477.191c-1.311-0.885-3.092-0.539-3.977,0.771c-0.885,1.312-0.539,3.092,0.772,3.977
					c1.312,0.885,3.091,0.539,3.976-0.772C211.496,479.856,211.15,478.076,209.84,477.191z M209.917,480.698
					c-0.626,0.927-1.885,1.172-2.812,0.546c-0.928-0.625-1.172-1.884-0.547-2.812c0.626-0.927,1.885-1.171,2.812-0.546
					C210.298,478.512,210.542,479.772,209.917,480.698z"/>
				<path fill="#FFFFFF" d="M223.653,486.467c-1.312-0.885-3.091-0.539-3.976,0.772c-0.385,0.57-0.537,1.228-0.479,1.863
					c0.278-0.038,0.556-0.08,0.832-0.124c-0.029-0.435,0.079-0.881,0.342-1.271c0.625-0.927,1.885-1.171,2.812-0.545
					c0.363,0.244,0.621,0.588,0.763,0.969c0.271-0.075,0.541-0.152,0.809-0.234C224.56,487.333,224.186,486.826,223.653,486.467z"/>
				<path fill="#FFFFFF" d="M144.616,459.983c0.885-1.311,0.539-3.092-0.772-3.976c-1.311-0.886-3.091-0.54-3.977,0.771
					c-0.151,0.226-0.267,0.465-0.348,0.711c0.224,0.167,0.467,0.347,0.728,0.539c0.048-0.271,0.151-0.537,0.315-0.781
					c0.626-0.927,1.886-1.171,2.812-0.545c0.927,0.625,1.171,1.885,0.546,2.811c-0.19,0.282-0.44,0.5-0.72,0.65
					c0.238,0.171,0.486,0.345,0.739,0.523C144.197,460.499,144.428,460.264,144.616,459.983z"/>
				<path fill="#FFFFFF" d="M158.43,469.259c0.885-1.311,0.539-3.092-0.771-3.977c-1.312-0.885-3.092-0.539-3.977,0.772
					c-0.186,0.275-0.317,0.573-0.397,0.878c0.251,0.159,0.505,0.319,0.761,0.48c0.038-0.309,0.146-0.614,0.332-0.89
					c0.626-0.927,1.885-1.172,2.812-0.546c0.928,0.626,1.172,1.885,0.546,2.812c-0.154,0.228-0.347,0.415-0.562,0.558
					c0.254,0.154,0.511,0.31,0.77,0.465C158.123,469.653,158.288,469.469,158.43,469.259z"/>
				<path fill="#FFFFFF" d="M171.472,474.557c-1.29-0.869-3.033-0.549-3.932,0.71c0.249,0.134,0.499,0.267,0.75,0.398
					c0.652-0.815,1.832-1.007,2.713-0.412c0.742,0.501,1.047,1.409,0.816,2.228c0.253,0.127,0.506,0.252,0.761,0.379
					C172.989,476.664,172.569,475.297,171.472,474.557z"/>
			</g>
			<polygon fill="#7EBD8E" points="213.448,229.888 289.994,277.584 270.679,343.499 185.855,288.844 			"/>
			<g>
				<polygon fill="#111F59" points="218.375,243.357 235.645,291.123 284.576,279.836 236.509,288.833 				"/>
				<g>
					<path fill="#FFFFFF" d="M267.387,326.789c-0.075,0-0.15-0.021-0.219-0.068l-68.273-45.973
						c-0.205-0.138-0.273-0.438-0.151-0.672c0.121-0.232,0.388-0.312,0.591-0.171l68.272,45.972
						c0.205,0.138,0.273,0.438,0.151,0.672C267.678,326.703,267.534,326.789,267.387,326.789z"/>
				</g>
				<polygon fill="#111F59" points="290.79,274.526 271.475,340.441 186.65,285.786 270.089,337.69 				"/>
				<path fill="#FC7575" d="M293.108,137.717c4.954,6.9,6.005,17.218-2.193,31.777c-8.199,14.56-21.28,26.641-30.001,54.21
					c-8.721,27.57-19.895,60.406-17.169,68.771c2.725,8.363,3.134,26.64,2.044,27.88c-1.09,1.238-1.908,1.548-1.908,1.548
					s1.346,3.099-0.554,3.873c-1.526,0.621-2.705,0.644-3.816,0.308c-0.532-0.161-1.087-0.172-1.618-0.008
					c-0.379,0.117-0.834,0.224-1.233,0.224c-0.72,0-2.743-1.981-3.478-3.141c-0.288-0.455-0.633-0.855-1.062-1.132
					c-0.927-0.594-2.412-1.597-3.022-2.292c-0.132-0.149-0.269-0.358-0.407-0.608c-1.286-2.319-1.287-5.271-0.174-7.704
					c2.312-5.049,6.449-14.512,6.645-18.019c0.273-4.878,5.655-55.449,5.655-55.449s24.732-86.427,34.542-97.579
					C285.169,129.224,290.488,134.067,293.108,137.717z"/>
				<path d="M301.609,151.114c-2.795-15.545-10.55-21.174-18.337-20.364c-17.706,0.891-61.021,91.32-69.357,108.92l4.336,2.609
					c7.745-18.934,49.16-109.901,66.271-108.789c18.011,0.643,16.738,33.652,13.681,53.852
					c-3.161,21.197-17.162,63.334-24.943,84.969l4.606,1.915C292.703,227.619,306.855,181.447,301.609,151.114z"/>
				<path d="M205.766,262.002L205.766,262.002c-1.732-1.053-2.386-3.504-1.459-5.474l9.357-19.892l6.276,3.814l-9.358,19.892
					C209.655,262.312,207.499,263.056,205.766,262.002z"/>
				<path d="M267.54,296.44L267.54,296.44c-1.822-0.836-2.702-3.193-1.967-5.265l7.43-20.917l6.6,3.029l-7.43,20.916
					C271.436,296.274,269.363,297.275,267.54,296.44z"/>
				<g>
					<path fill="#2846A6" d="M239.285,321.853c0.29-0.933-1.024-1.252-1.124-0.299c-0.136,1.307-0.154,3.022,0.21,4.421
						c0.098-0.011,0.194-0.017,0.292-0.018C238.582,324.593,238.911,323.051,239.285,321.853z"/>
					<path fill="#2846A6" d="M232.777,317.746c-0.1,1.043-0.243,2.834-0.28,4.572c0.168,0.153,0.32,0.327,0.46,0.514
						c0.348-2.382,0.959-4.843,0.969-4.945C234.008,317.022,232.859,316.883,232.777,317.746z"/>
					<path fill="#2846A6" d="M229.629,314.068c-0.286,1.373-0.65,3.304-0.884,5.155c0.119,0.206,0.237,0.381,0.352,0.511
						c0.005,0.006,0.01,0.011,0.015,0.017c0.537-2.116,1.281-4.32,1.617-5.29C231.03,313.588,229.816,313.17,229.629,314.068z"/>
				</g>
			</g>
		</g>
	</g>
</g>
</svg>
